<?xml version="1.0" encoding="UTF-8"?>
<!-- Created with Inkscape (http://www.inkscape.org/) -->
<svg width="128.7" height="128.7" version="1.1" viewBox="0 0 34.051 34.051" xmlns="http://www.w3.org/2000/svg">
 <g transform="translate(-88.807 -133.29)">
  <path d="m109.71 133.29c-2.2436-6e-5 -4.0624 1.8352-4.0623 4.099 3e-3 0.69171 0.17997 1.3714 0.51366 1.9756 0.11013 0.65244 0.0194 1.6764-1.6934 1.6764h-5.4942c-1.3371 0-2.4138 1.0767-2.4138 2.4138v5.4942c0 1.695-1.0029 1.8016-1.6562 1.697-0.60986-0.33822-1.2969-0.51629-1.9957-0.51728-2.2638-9e-5 -4.099 1.8187-4.099 4.0623-5.9e-5 2.2435 1.8352 4.0624 4.099 4.0623 0.69868-1e-3 1.3855-0.17914 1.9952-0.51728 0.65333-0.10473 1.6567 1e-3 1.6567 1.6965v5.4948c0 1.3371 1.0767 2.4138 2.4138 2.4138h21.473c1.3371 0 2.4138-1.0767 2.4138-2.4138v-5.4948c0-1.6959-1.004-1.8014-1.6573-1.6965-0.60956 0.33806-1.2962 0.51612-1.9947 0.51728-2.2638 1e-4 -4.099-1.8187-4.099-4.0623-6e-5 -2.2436 1.8352-4.0624 4.099-4.0623 0.69868 1e-3 1.3855 0.17914 1.9952 0.51728 0.65332 0.10472 1.6567-2e-3 1.6567-1.697v-5.4942c0-1.3371-1.0767-2.4138-2.4138-2.4138h-5.4948c-1.7119 0-1.8033-1.0228-1.6934-1.6754 0.33404-0.60449 0.51093-1.2845 0.51418-1.9766 1e-4 -2.2638-1.8187-4.099-4.0623-4.099z"/>
 </g>
</svg>
