<?xml version="1.0" encoding="UTF-8"?>
<!-- Created with Inkscape (http://www.inkscape.org/) -->
<svg width="34.315mm" height="34.316mm" version="1.1" viewBox="0 0 34.315 34.316" xmlns="http://www.w3.org/2000/svg">
 <g transform="translate(-86.783 -124.88)">
  <path d="m100.07 125.02c-2.2435-6e-5 -4.0624 1.8352-4.0623 4.099 3e-3 0.69171 0.17997 1.3714 0.51366 1.9756 0.11013 0.65244 0.0194 1.6764-1.6934 1.6764h-5.4942c-1.3371 0-2.4138 1.0767-2.4138 2.4138v5.4942c0 1.7128 1.024 1.8036 1.6764 1.6934 0.60424-0.33369 1.2839-0.5104 1.9756-0.51367 2.2638-9e-5 4.099 1.8188 4.099 4.0623 6e-5 2.2435-1.8352 4.0624-4.099 4.0623-0.69209-3e-3 -1.3721-0.18015-1.9766-0.51418-0.65249-0.10984-1.6754-0.0185-1.6754 1.6934v5.4948c0 1.3371 1.0767 2.4138 2.4138 2.4138h5.4942c1.7133 0 1.8037-1.0245 1.6934-1.6769-0.3336-0.60408-0.51031-1.2836-0.51366-1.9751-1e-4 -2.2638 1.8187-4.099 4.0623-4.099 2.2435-6e-5 4.0624 1.8352 4.0623 4.099-3e-3 0.69192-0.18023 1.3718-0.51418 1.9761-0.10998 0.65247-0.0189 1.6759 1.6934 1.6759h5.4948c1.3371 0 2.4138-1.0767 2.4138-2.4138v-5.4948c0-1.7119 1.0228-1.8033 1.6754-1.6934 0.6045 0.33404 1.2845 0.51093 1.9766 0.51418 2.2636-1.8e-4 4.0985-1.8189 4.0984-4.0623 6e-5 -2.2434-1.8349-4.0621-4.0984-4.0623-0.69171 3e-3 -1.3714 0.17998-1.9756 0.51367-0.65244 0.11013-1.6764 0.0194-1.6764-1.6934v-5.4942c0-1.3371-1.0767-2.4138-2.4138-2.4138h-5.4948c-1.7119 0-1.8033-1.0229-1.6934-1.6754 0.33404-0.6045 0.51093-1.2845 0.51418-1.9766 1e-4 -2.2638-1.8187-4.099-4.0623-4.099z" stroke="#030303" stroke-linecap="round" stroke-width=".26458"/>
 </g>
</svg>
