<?xml version="1.0" encoding="UTF-8"?>
<!-- Created with Inkscape (http://www.inkscape.org/) -->
<svg width="26.565mm" height="42.066mm" version="1.1" viewBox="0 0 26.565 42.066" xmlns="http://www.w3.org/2000/svg">
 <g transform="translate(-95.779 -120.39)">
  <path d="m109.06 120.52c-2.2436-6e-5 -4.0624 1.8352-4.0623 4.099 3e-3 0.69171 0.17997 1.3714 0.51366 1.9756 0.11013 0.65244 0.0194 1.6764-1.6934 1.6764h-5.4942c-1.3371 0-2.4138 1.0767-2.4138 2.4138v5.4942c0 1.7128 1.024 1.8036 1.6764 1.6934 0.60424-0.33369 1.2839-0.5104 1.9756-0.51367 2.2638-9e-5 4.099 1.8187 4.099 4.0623 6e-5 2.2435-1.8352 4.0624-4.099 4.0623-0.69209-3e-3 -1.3721-0.18015-1.9766-0.51418-0.65249-0.10984-1.6754-0.0185-1.6754 1.6934v5.4948c0 1.3371 1.0767 2.4138 2.4138 2.4138h5.4942c1.7129 0 1.8036 1.0239 1.6934 1.6764-0.33369 0.60425-0.5104 1.2839-0.51366 1.9756 1.8e-4 2.2636 1.8189 4.0985 4.0623 4.0985 2.2434 6e-5 4.0621-1.8348 4.0623-4.0985-1e-3 -0.69869-0.17914-1.3855-0.51728-1.9952-0.10473-0.65334 1e-3 -1.6568 1.6965-1.6568h5.4948c1.3371 0 2.4138-1.0767 2.4138-2.4138v-5.4948c0-1.6959-1.004-1.8014-1.6573-1.6965-0.60956 0.33805-1.2962 0.51612-1.9947 0.51728-2.2638 1e-4 -4.099-1.8187-4.099-4.0623-6e-5 -2.2436 1.8352-4.0624 4.099-4.0623 0.69171 3e-3 1.3714 0.17998 1.9756 0.51367 0.65244 0.11012 1.6764 0.0194 1.6764-1.6934v-5.4942c0-1.3371-1.0767-2.4138-2.4138-2.4138h-5.4948c-1.7119 0-1.8033-1.0229-1.6934-1.6754 0.33403-0.6045 0.51093-1.2845 0.51418-1.9766 1e-4 -2.2638-1.8187-4.099-4.0623-4.099z" stroke="#030303" stroke-linecap="round" stroke-width=".26458"/>
 </g>
</svg>
