<?xml version="1.0" encoding="UTF-8"?>
<!-- Created with Inkscape (http://www.inkscape.org/) -->
<svg id="svg1" width="600" height="600" version="1.1" viewBox="0 0 158.75 158.75" xmlns="http://www.w3.org/2000/svg">
 <g stroke-linecap="round" stroke-width=".21082">
  <path id="p13" d="m79.28 88.042c-1.3893 1.3862-1.3817 3.6463 0.01692 5.0481 0.4294 0.42606 0.95868 0.73746 1.5385 0.9053 0.47143 0.33582 1.0487 1.0261-0.01245 2.085l-2.8093 2.8033c-0.75418 0.75258-0.75547 1.9659-0.0029 2.7201l12.085 12.111c0.75258 0.75419 1.9655 0.75511 2.7197 3e-3l12.111-12.086c0.75418-0.75257 0.75584-1.9655 3e-3 -2.7197l-2.8037-2.8097c-1.0496-1.0518-1.7374-0.49358-2.0766-0.0245-0.1684 0.58497-0.48289 1.1187-0.91371 1.5505-1.4018 1.399-3.6622 1.4067-5.0485 0.01729-1.3861-1.3893-1.3734-3.6494 0.02839-5.0481 0.43026-0.42511 0.95998-0.73562 1.5401-0.90238 0.47215-0.33482 1.0511-1.0237-0.0076-2.0847l-2.8037-2.8097c-0.75258-0.75418-1.9659-0.75547-2.7201-0.0029l-2.8097 2.8037c-1.0611 1.0588-1.7499 0.47981-2.0846 0.0076-0.1666-0.58018-0.4769-1.1101-0.90202-1.5404-1.3989-1.4016-3.659-1.414-5.0481-0.02766z" fill="#3a435f" stroke="#3a435f"/>
  <path id="p15" d="m64.456 97.614c1.3862 1.3889 3.6461 1.3812 5.0478-0.01728 0.38992-0.41042 0.67797-0.9065 0.84052-1.4476 0.3073-0.47916 1.0222-1.2084 2.1498-0.07847l2.8037 2.8097c0.75256 0.75417 1.9659 0.75546 2.7201 0.0029l2.8097-2.8037c1.1302-1.1278 0.40032-1.843-0.07883-2.1501-0.54091-0.1625-1.0369-0.45041-1.4472-0.84015-1.3988-1.4016-1.4067-3.6618-0.01764-5.0481 1.3892-1.3864 3.6497-1.3739 5.0484 0.02802 0.38868 0.41112 0.67542 0.90755 0.8367 1.4486 0.30602 0.47979 1.0198 1.2119 2.1503 0.08378l2.8097-2.8037c0.75417-0.75256 0.75509-1.9656 0.0025-2.7197l-2.8037-2.8097c-1.1282-1.1306-0.39566-1.844 0.08414-2.15 0.54117-0.1615 1.0376-0.44847 1.4486-0.83743 1.4015-1.3987 1.414-3.6585 0.02803-5.0477-1.3862-1.3893-3.6463-1.3817-5.0481 0.01691-0.38965 0.41015-0.67755 0.90582-0.84015 1.4465-0.30688 0.47914-1.022 1.2109-2.1505 0.07993l-2.8037-2.8097c-0.75256-0.75416-1.9652-0.75546-2.7194-0.0029l-2.8097 2.8037c-1.1305 1.1281-1.8443 0.39602-2.1503-0.08378-0.16134-0.54126-0.4482-1.0378-0.83706-1.449-1.3988-1.4016-3.659-1.414-5.0481-0.02766-1.3889 1.3862-1.3812 3.6461 0.01728 5.0478 0.41043 0.38993 0.9065 0.67796 1.4476 0.84052 0.47915 0.30719 1.2091 1.0223 0.07883 2.1501l-2.8097 2.8037c-0.75416 0.75256-0.75582 1.9656-0.0033 2.7197l2.8037 2.8097c1.1279 1.1303 0.39638 1.8438-0.08341 2.15-0.54126 0.16134-1.0378 0.4482-1.449 0.83707-1.4016 1.3988-1.414 3.659-0.02766 5.0481z" fill="#5b6571" stroke="#5b6571"/>
  <path id="p12" d="m118.52 73.265c-1.3862-1.3889-3.6461-1.3812-5.0478 0.01728-0.38993 0.41042-0.67797 0.9065-0.84052 1.4476-0.3073 0.47915-1.0222 1.2084-2.1498 0.07847l-2.8037-2.8097c-0.75257-0.75417-1.9659-0.75546-2.7201-0.0029l-2.8097 2.8037c-1.1302 1.1278-0.40031 1.843 0.0788 2.1501 0.54092 0.1625 1.0369 0.45041 1.4472 0.84015 1.3988 1.4016 1.4067 3.6618 0.0176 5.0481-1.3892 1.3864-3.6497 1.3739-5.0484-0.02802-0.38868-0.41112-0.67543-0.90755-0.83671-1.4486-0.30602-0.47979-1.0198-1.2119-2.1503-0.08378l-2.8097 2.8037c-0.75417 0.75256-0.75509 1.9656-0.0025 2.7197l2.8037 2.8097c1.1282 1.1306 0.39566 1.844-0.08414 2.15-0.54117 0.1615-1.0376 0.44847-1.4486 0.83743-1.4015 1.3987-1.414 3.6585-0.02803 5.0477 1.3862 1.3893 3.6463 1.3817 5.0481-0.01691 0.38965-0.41015 0.67755-0.90581 0.84015-1.4465 0.30688-0.47914 1.022-1.2109 2.1505-0.07993l2.8037 2.8097c0.75255 0.75416 1.9652 0.75546 2.7194 0.0029l2.8097-2.8037c1.1306-1.1281 1.8443-0.39602 2.1503 0.08378 0.16135 0.54126 0.44819 1.0378 0.83707 1.449 1.3988 1.4016 3.659 1.414 5.0481 0.02766 1.3889-1.3862 1.3812-3.6461-0.0173-5.0478-0.41042-0.38992-0.90649-0.67796-1.4476-0.84052-0.47916-0.30719-1.209-1.0223-0.0788-2.1501l2.8097-2.8037c0.75416-0.75256 0.75581-1.9656 3e-3 -2.7197l-2.8037-2.8097c-1.1278-1.1303-0.39638-1.8438 0.0834-2.15 0.54126-0.16134 1.0378-0.4482 1.449-0.83707 1.4016-1.3988 1.414-3.659 0.0277-5.0481z" fill="#6c6f7f" stroke="#6c6f7f"/>
  <path id="p24" d="m14.792 53.087c1.3893-1.3862 1.3817-3.6463-0.01691-5.0481-0.42939-0.42606-0.95868-0.73745-1.5385-0.9053-0.47144-0.33582-1.049-1.0258 0.01208-2.0846l2.8097-2.8037c0.75417-0.75257 0.75547-1.9659 0.0029-2.7201l-2.8037-2.8097c-1.0587-1.0609-1.7488-0.4835-2.0846-0.01208-0.168 0.57972-0.47955 1.1089-0.90565 1.5381-1.4016 1.3988-3.6618 1.4067-5.0481 0.01765-1.3865-1.3893-1.3739-3.6496 0.028031-5.0484 0.43052-0.42565 0.96084-0.73636 1.5415-0.90311 0.4719-0.33522 1.0486-1.024-0.0091-2.0839l-2.8037-2.8097c-0.75258-0.75418-1.9656-0.7551-2.7197-0.0025l-2.8097 2.8037c-1.0611 1.0589-0.48354 1.7488-0.012083 2.0846 0.57981 0.16784 1.1091 0.47927 1.5385 0.9053 1.3986 1.4018 1.4062 3.662 0.016915 5.0481-1.3891 1.3863-3.6492 1.3739-5.0481-0.02766-0.42514-0.43029-0.73541-0.96025-0.90201-1.5404-0.33481-0.47214-1.0239-1.0509-2.085 8e-3l-2.8093 2.8033c-0.75418 0.75258-0.75584 1.9655-0.0033 2.7197l12.085 12.111c0.75257 0.75418 1.9659 0.75547 2.7201 0.0029l2.8093-2.8033c1.0611-1.0588 1.7502-0.48018 2.085-8e-3 0.1666 0.58018 0.4769 1.1101 0.90201 1.5404 1.3989 1.4016 3.659 1.414 5.0481 0.02766z" fill="#303d4f" stroke="#303d4f"/>
  <path id="p11" d="m108.95 58.436c-1.3893 1.3862-1.3817 3.6463 0.0169 5.0481 0.42938 0.42606 0.95868 0.73746 1.5385 0.9053 0.47144 0.33582 1.049 1.0258-0.0121 2.0846l-2.8097 2.8037c-0.75418 0.75257-0.75548 1.9659-3e-3 2.7201l2.8037 2.8097c1.0587 1.0609 1.7488 0.4835 2.0846 0.01208 0.168-0.57973 0.47955-1.1089 0.90565-1.5381 1.4016-1.3988 3.6618-1.4067 5.0481-0.01765 1.3864 1.3893 1.3739 3.6496-0.028 5.0484-0.43052 0.42565-0.96084 0.73636-1.5415 0.90311-0.4719 0.33522-1.0486 1.024 9e-3 2.0839l2.8037 2.8097c0.75258 0.75418 1.9656 0.7551 2.7197 0.0025l2.8097-2.8037c1.0611-1.0589 0.48354-1.7488 0.0121-2.0846-0.5798-0.16784-1.1091-0.47927-1.5385-0.9053-1.3986-1.4018-1.4062-3.662-0.0169-5.0481 1.3891-1.3863 3.6492-1.3739 5.0481 0.02766 0.42515 0.43029 0.73541 0.96025 0.90201 1.5404 0.33482 0.47215 1.0239 1.0509 2.085-8e-3l2.8093-2.8033c0.75418-0.75258 0.75585-1.9655 3e-3 -2.7197l-12.085-12.111c-0.75257-0.75418-1.9659-0.75547-2.7201-0.0029l-2.8093 2.8033c-1.0611 1.0588-1.7502 0.48018-2.085 8e-3 -0.16659-0.58018-0.4769-1.1101-0.90201-1.5404-1.3989-1.4016-3.659-1.414-5.0481-0.02766z" fill="#465662" stroke="#465662"/>
  <path id="p26" d="m20.054 23.456c1.3863 1.3894 3.6467 1.3817 5.0485-0.01729 0.4263-0.42963 0.73809-0.95908 0.90603-1.5392 0.33608-0.47127 1.0262-1.0471 2.0843 0.01318l2.8037 2.8097c0.75256 0.75417 1.9652 0.75546 2.7194 0.0029l12.111-12.085c0.75417-0.75256 0.75582-1.9656 0.0033-2.7197l-12.085-12.111c-0.75257-0.75417-1.9659-0.75547-2.7201-0.0029l-2.8097 2.8037c-1.0611 1.0589-1.7499 0.47982-2.0847 0.00765-0.16676-0.58008-0.47719-1.1099-0.90238-1.5401-1.3987-1.4018-3.6588-1.4145-5.0481-0.028397-1.3894 1.3863-1.3817 3.6467 0.01728 5.0485 0.42984 0.42665 0.95974 0.73852 1.5403 0.90638 0.47114 0.33628 1.0455 1.0264-0.01428 2.0839l-2.8097 2.8037c-0.75417 0.75257-0.7551 1.9656-0.0025 2.7197l2.8037 2.8097c1.0587 1.0609 0.47977 1.7498 0.0076 2.0847-0.58007 0.16676-1.1099 0.47719-1.5401 0.90238-1.4018 1.3986-1.4145 3.6588-0.02839 5.0481z" fill="#303d4f" stroke="#303d4f"/>
  <path id="p6" d="m118.46 132.54c-1.3863-1.3894-3.6467-1.3817-5.0485 0.0173-0.4263 0.42963-0.73809 0.95908-0.90603 1.5392-0.33608 0.47127-1.0262 1.0471-2.0843-0.0132l-2.8037-2.8097c-0.75256-0.75417-1.9652-0.75546-2.7194-3e-3l-12.111 12.085c-0.75417 0.75256-0.75582 1.9656-0.0033 2.7197l12.085 12.111c0.75256 0.75418 1.9659 0.75547 2.7201 3e-3l2.8097-2.8037c1.0611-1.0588 1.7498-0.47981 2.0846-8e-3 0.16676 0.58007 0.47719 1.1099 0.90238 1.54 1.3987 1.4018 3.6588 1.4145 5.0481 0.0284 1.3894-1.3863 1.3817-3.6467-0.0173-5.0485-0.42991-0.42658-0.95973-0.73852-1.5403-0.90638-0.47116-0.33626-1.0455-1.0264 0.0143-2.0839l2.8097-2.8037c0.75418-0.75257 0.7551-1.9656 3e-3 -2.7197l-2.8037-2.8097c-1.0587-1.0609-0.47977-1.7498-8e-3 -2.0847 0.58007-0.16676 1.1099-0.47718 1.5401-0.90237 1.4018-1.3986 1.4145-3.6588 0.0284-5.0481z" fill="#6c6f7f" stroke="#6c6f7f"/>
  <path id="p22" d="m23.652 74.743a3.5536 3.5856 45.061 0 1 0.917-1.5546 3.5536 3.5856 45.061 0 1 5.0481-0.01764 3.5536 3.5856 45.061 0 1-0.02804 5.0484 3.5536 3.5856 45.061 0 1-1.5404 0.90202c-0.47217 0.33484-1.0506 1.0241 8e-3 2.085l2.8037 2.8097c0.75258 0.75419 1.9655 0.75511 2.7197 0.0025l2.8097-2.8037c1.061-1.0587 0.48351-1.7488 0.01208-2.0846a3.5856 3.5536 45.061 0 1-1.5381-0.90566 3.5856 3.5536 45.061 0 1-0.01763-5.0481 3.5856 3.5536 45.061 0 1 5.0484 0.02803 3.5856 3.5536 45.061 0 1 0.90311 1.5422c0.33534 0.47182 1.0243 1.0476 2.0839-0.0098l2.8097-2.8037c0.75418-0.75258 0.75548-1.9652 0.0029-2.7194l-2.8037-2.8097c-1.0576-1.0598-1.7476-0.48542-2.0839-0.01427a3.5536 3.5856 45.061 0 1-0.90639 1.5403 3.5536 3.5856 45.061 0 1-5.0485 0.01729 3.5536 3.5856 45.061 0 1 0.02839-5.0481 3.5536 3.5856 45.061 0 1 1.5565-0.91369c0.46896-0.33927 1.0225-1.0245-0.0241-2.0733l-2.8037-2.8097c-0.75258-0.75419-1.9655-0.75584-2.7197-0.0033l-2.8097 2.8037c-1.0477 1.0454-0.49791 1.7319-0.02998 2.0726a3.5856 3.5536 45.061 0 1 1.556 0.91774 3.5856 3.5536 45.061 0 1 0.01729 5.0485 3.5856 3.5536 45.061 0 1-5.0481-0.02839 3.5856 3.5536 45.061 0 1-0.90238-1.5401c-0.33483-0.47216-1.0237-1.0511-2.0847 0.0076l-2.8097 2.8037c-0.75419 0.75258-0.75548 1.9659-0.0029 2.7201l2.8037 2.8097c1.0464 1.0486 1.733 0.49671 2.0733 0.02851z" fill="#465662" stroke="#465662"/>
  <path id="p14" d="m79.315 58.405c-1.3894 1.3863-1.3817 3.6467 0.01728 5.0485 0.42936 0.42603 0.95841 0.73766 1.5381 0.90566 0.47143 0.33582 1.049 1.0258-0.0121 2.0846l-2.8097 2.8037c-0.75417 0.75257-0.75547 1.9659-0.0029 2.7201l2.8037 2.8097c1.0587 1.0609 1.7488 0.4835 2.0846 0.01208 0.16805-0.57989 0.47974-1.1092 0.90602-1.5385 1.4017-1.3985 3.6616-1.4062 5.0478-0.01727 1.3863 1.3891 1.3739 3.6492-0.02766 5.0481-0.43094 0.42578-0.96152 0.73679-1.5426 0.90347-0.47181 0.33533-1.0476 1.0243 0.0098 2.0839l2.8037 2.8097c0.75256 0.75417 1.9656 0.7551 2.7197 0.0025l2.8097-2.8037c1.0609-1.0587 1.7498-0.47978 2.0847-0.0077 0.16676 0.58008 0.4772 1.1099 0.90239 1.5401 1.3988 1.4019 3.6592 1.4145 5.0484 0.02803 1.3891-1.3864 1.3812-3.6465-0.0176-5.0481-0.42936-0.42603-0.95841-0.73766-1.5381-0.90566-0.47145-0.33583-1.0489-1.0259 0.0121-2.0846l2.8097-2.8037c0.75417-0.75256 0.75582-1.9656 3e-3 -2.7197l-2.8037-2.8097c-1.0474-1.0496-1.7344-0.4959-2.0744-0.02742-0.16862 0.58639-0.48404 1.1213-0.91626 1.5538-1.4018 1.3986-3.662 1.4062-5.0481 0.01692-1.386-1.3892-1.3734-3.649 0.02802-5.0477 0.43038-0.42523 0.96018-0.73593 1.5404-0.90274 0.47216-0.33482 1.051-1.0238-0.0076-2.0847l-2.8037-2.8097c-0.75257-0.75417-1.9659-0.75546-2.7201-0.0029l-2.8097 2.8037c-1.0611 1.0588-1.7499 0.47982-2.0847 0.0077-0.16676-0.58008-0.47719-1.1099-0.90238-1.5401-1.3987-1.4018-3.6588-1.4145-5.0481-0.02839z" fill="#303d4f" stroke="#303d4f"/>
  <path id="p10" d="m123.75 73.27c-1.3894 1.3863-1.3817 3.6467 0.0173 5.0485 0.42936 0.42603 0.95841 0.73766 1.5381 0.90566 0.47144 0.33582 1.049 1.0258-0.0121 2.0846l-2.8097 2.8037c-0.75418 0.75257-0.75547 1.9659-3e-3 2.7201l2.8037 2.8097c1.0587 1.0609 1.7488 0.4835 2.0846 0.01208 0.16804-0.57989 0.47974-1.1092 0.90601-1.5385 1.4017-1.3985 3.6616-1.4062 5.0478-0.01727 1.3863 1.3891 1.3739 3.6492-0.0277 5.0481-0.43094 0.42579-0.96151 0.73679-1.5426 0.90347-0.47181 0.33533-1.0476 1.0243 0.01 2.0839l2.8037 2.8097c0.75256 0.75417 1.9656 0.7551 2.7197 0.0025l2.8097-2.8037c1.0609-1.0587 1.7498-0.47977 2.0847-0.0076 0.16676 0.58009 0.47718 1.1099 0.90238 1.5401 1.3988 1.4019 3.6592 1.4145 5.0484 0.02802 1.3891-1.3864 1.3812-3.6465-0.0177-5.0481-0.42936-0.42603-0.95841-0.73766-1.5381-0.90565-0.47144-0.33583-1.0489-1.0259 0.0121-2.0846l2.8097-2.8037c0.75417-0.75256 0.75582-1.9656 3e-3 -2.7197l-2.8037-2.8097c-1.0474-1.0496-1.7344-0.49589-2.0744-0.02742-0.16862 0.58639-0.48405 1.1213-0.91627 1.5538-1.4018 1.3986-3.662 1.4062-5.0481 0.01692-1.386-1.3892-1.3734-3.649 0.028-5.0477 0.43037-0.42523 0.96017-0.73593 1.5404-0.90274 0.47216-0.33482 1.051-1.0238-8e-3 -2.0847l-2.8037-2.8097c-0.75258-0.75417-1.9659-0.75547-2.7201-0.0029l-2.8097 2.8037c-1.0611 1.0588-1.7499 0.47982-2.0847 0.0077-0.16676-0.58009-0.47719-1.1099-0.90238-1.5401-1.3987-1.4018-3.6587-1.4145-5.0481-0.02839z" fill="#3a435f" stroke="#3a435f"/>
  <path id="p20" d="m20.013 87.978c-1.3894 1.3863-1.3817 3.6467 0.01728 5.0485 0.42936 0.42603 0.95841 0.73766 1.5381 0.90566 0.47143 0.33582 1.049 1.0258-0.0121 2.0846l-2.8097 2.8037c-0.75418 0.75258-0.75547 1.9659-0.0029 2.7201l2.8037 2.8097c1.0587 1.0609 1.7488 0.4835 2.0846 0.0121 0.16804-0.57989 0.47974-1.1092 0.90602-1.5385 1.4017-1.3985 3.6616-1.4062 5.0478-0.0173 1.3863 1.3891 1.3739 3.6492-0.02766 5.0481-0.43094 0.4258-0.96152 0.73679-1.5426 0.90348-0.47181 0.33533-1.0476 1.0243 0.0098 2.0839l2.8037 2.8097c0.75256 0.75417 1.9655 0.7551 2.7197 3e-3l2.8097-2.8037c1.0609-1.0587 1.7498-0.47977 2.0847-8e-3 0.16676 0.58009 0.47719 1.1099 0.90238 1.5401 1.3988 1.4019 3.6592 1.4145 5.0484 0.028 1.3891-1.3864 1.3812-3.6465-0.01765-5.0481-0.42936-0.42603-0.95842-0.73767-1.5381-0.90566-0.47144-0.33583-1.0489-1.0259 0.01209-2.0846l2.8097-2.8037c0.75417-0.75257 0.75581-1.9656 0.0033-2.7197l-2.8037-2.8097c-1.0474-1.0496-1.7344-0.49589-2.0744-0.02742-0.16862 0.5864-0.48405 1.1213-0.91627 1.5538-1.4018 1.3986-3.662 1.4062-5.0481 0.01692-1.386-1.3892-1.3734-3.649 0.02803-5.0477 0.43038-0.42523 0.96018-0.73594 1.5404-0.90274 0.47216-0.33482 1.051-1.0238-0.0076-2.0847l-2.8037-2.8097c-0.75258-0.75417-1.9659-0.75547-2.7201-0.0029l-2.8097 2.8037c-1.0611 1.0588-1.7499 0.47982-2.0847 0.0077-0.16675-0.58009-0.47719-1.1099-0.90237-1.5401-1.3987-1.4018-3.6587-1.4145-5.0481-0.02839z" fill="#303d4f" stroke="#303d4f"/>
  <path id="p17" d="m49.654 82.781c1.3863 1.3891 3.6465 1.3812 5.0481-0.01764 0.42602-0.42936 0.73766-0.95841 0.90566-1.5381 0.33582-0.47144 1.0259-1.0489 2.0846 0.01209l2.8037 2.8097c0.75257 0.75417 1.9659 0.75547 2.7201 0.0029l2.8097-2.8037c1.0609-1.0587 0.48349-1.7488 0.01208-2.0846-0.57972-0.168-1.1089-0.47956-1.5381-0.90566-1.3988-1.4016-1.4067-3.6618-0.01763-5.0481 1.3892-1.3865 3.6497-1.3739 5.0484 0.02803 0.42566 0.43082 0.73648 0.96133 0.90311 1.5423 0.33533 0.47181 1.0244 1.0475 2.0839-0.0098l2.8097-2.8037c0.75417-0.75256 0.7551-1.9656 0.0025-2.7197l-2.8037-2.8097c-1.0588-1.0611-1.7489-0.48354-2.0846-0.01208-0.168 0.57971-0.47955 1.1089-0.90565 1.5381-1.4016 1.3988-3.6618 1.4067-5.0481 0.01765-1.3864-1.3892-1.3739-3.6497 0.02803-5.0484 0.43082-0.42566 0.96132-0.73648 1.5422-0.90311 0.47187-0.33525 1.0477-1.0241-0.0098-2.0839l-2.8037-2.8097c-0.75256-0.75417-1.9652-0.75546-2.7194-0.0029l-2.8097 2.8037c-1.0596 1.0574-1.7486 0.48166-2.0839 0.0098-0.16663-0.58095-0.47734-1.1115-0.90311-1.5422-1.3988-1.402-3.6592-1.4145-5.0484-0.02804-1.3891 1.3864-1.3812 3.6465 0.01764 5.0481 0.42935 0.42602 0.9584 0.73766 1.5381 0.90565 0.47144 0.33583 1.0489 1.0259-0.01208 2.0846l-2.8097 2.8037c-0.75418 0.75257-0.75582 1.9656-0.0033 2.7197l2.8037 2.8097c1.0574 1.0596 0.48165 1.7486 0.0098 2.0839-0.58093 0.16663-1.1115 0.47734-1.5423 0.90312-1.4019 1.3988-1.4145 3.6592-0.02802 5.0484z" fill="#6c6f7f" stroke="#6c6f7f"/>
  <path id="p8" d="m148.13 102.93c-1.3864-1.3891-3.6465-1.3812-5.0481 0.0176-0.42601 0.42935-0.73765 0.9584-0.90565 1.5381-0.33583 0.47144-1.0259 1.0489-2.0846-0.0121l-2.8037-2.8097c-0.75258-0.75417-1.9659-0.75546-2.7201-3e-3l-2.8097 2.8037c-1.0609 1.0587-0.48349 1.7488-0.0121 2.0846 0.57972 0.168 1.1089 0.47956 1.5381 0.90566 1.3988 1.4016 1.4067 3.6618 0.0176 5.0481-1.3892 1.3865-3.6496 1.3739-5.0484-0.028-0.42566-0.43082-0.73648-0.96133-0.9031-1.5422-0.33533-0.47181-1.0244-1.0475-2.0839 0.01l-2.8097 2.8037c-0.75417 0.75256-0.7551 1.9656-3e-3 2.7197l2.8037 2.8097c1.0588 1.0611 1.7488 0.48355 2.0846 0.0121 0.16799-0.57972 0.47955-1.1089 0.90566-1.5381 1.4016-1.3988 3.6618-1.4067 5.0481-0.0177 1.3864 1.3892 1.3739 3.6497-0.028 5.0484-0.43082 0.42566-0.96132 0.73648-1.5422 0.90311-0.47187 0.33524-1.0477 1.0241 0.01 2.0839l2.8037 2.8097c0.75257 0.75416 1.9652 0.75545 2.7194 3e-3l2.8097-2.8037c1.0596-1.0574 1.7486-0.48166 2.0839-0.01 0.16663 0.58095 0.47734 1.1115 0.90311 1.5422 1.3988 1.402 3.6592 1.4145 5.0484 0.028 1.3891-1.3864 1.3812-3.6465-0.0177-5.0481-0.42935-0.42603-0.9584-0.73766-1.5381-0.90565-0.47143-0.33583-1.0489-1.0259 0.0121-2.0846l2.8097-2.8037c0.75417-0.75258 0.75582-1.9656 3e-3 -2.7197l-2.8037-2.8097c-1.0574-1.0596-0.48164-1.7486-0.01-2.0839 0.58093-0.16663 1.1115-0.47735 1.5422-0.90312 1.4019-1.3988 1.4145-3.6592 0.028-5.0484z" fill="#303d4f" stroke="#303d4f"/>
  <path id="p4" d="m148.1 132.57c-1.3864-1.3891-3.6465-1.3812-5.0481 0.0176-0.42602 0.42935-0.73767 0.95842-0.90566 1.5382-0.33583 0.47143-1.0259 1.0489-2.0846-0.0121l-2.8037-2.8097c-0.75258-0.75417-1.9659-0.75546-2.7201-3e-3l-2.8097 2.8037c-1.0609 1.0587-0.48349 1.7488-0.0121 2.0846 0.57972 0.168 1.1089 0.47956 1.5381 0.90565 1.3988 1.4016 1.4067 3.6618 0.0176 5.0481-1.3892 1.3865-3.6496 1.3739-5.0484-0.028-0.42568-0.43082-0.73649-0.96132-0.90312-1.5422-0.33532-0.47182-1.0244-1.0475-2.0839 0.01l-2.8097 2.8037c-0.75416 0.75257-0.7551 1.9656-3e-3 2.7197l2.8037 2.8097c1.0588 1.0611 1.7489 0.48354 2.0846 0.0121 0.168-0.57971 0.47956-1.1088 0.90566-1.5381 1.4016-1.3988 3.6618-1.4067 5.0481-0.0177 1.3864 1.3893 1.3739 3.6497-0.028 5.0484-0.43083 0.42568-0.96133 0.73648-1.5423 0.90312-0.47187 0.33524-1.0477 1.0241 0.01 2.0839l2.8037 2.8097c0.75256 0.75417 1.9652 0.75546 2.7194 3e-3l2.8097-2.8037c1.0596-1.0574 1.7486-0.48166 2.0839-0.01 0.16664 0.58094 0.47734 1.1115 0.90311 1.5422 1.3988 1.402 3.6592 1.4145 5.0484 0.028 1.3891-1.3864 1.3812-3.6465-0.0176-5.0481-0.42936-0.42601-0.95841-0.73765-1.5381-0.90564-0.47143-0.33583-1.0489-1.0259 0.0121-2.0846l2.8097-2.8037c0.75418-0.75258 0.75582-1.9656 3e-3 -2.7197l-2.8037-2.8097c-1.0574-1.0596-0.48164-1.7486-0.01-2.0839 0.58093-0.16664 1.1115-0.47735 1.5422-0.90313 1.4019-1.3988 1.4145-3.6592 0.028-5.0484z" fill="#5b6571" stroke="#5b6571"/>
  <path id="p28" d="m14.825 23.45c1.3891-1.3864 1.3812-3.6465-0.01765-5.0481-0.42935-0.42602-0.95841-0.73766-1.5381-0.90566-0.47144-0.33583-1.0489-1.0259 0.01208-2.0846l2.8097-2.8037c0.75417-0.75256 0.75546-1.9659 0.0029-2.7201l-2.8037-2.8097c-1.0587-1.0609-1.7488-0.4835-2.0846-0.012081-0.16799 0.57972-0.47956 1.1089-0.90565 1.5381-1.4016 1.3988-3.6618 1.4067-5.0481 0.017648-1.3864-1.3892-1.3739-3.6497 0.028031-5.0484 0.43075-0.42574 0.96132-0.73647 1.5423-0.90311 0.47181-0.33532 1.0475-1.0243-0.00984-2.0839l-2.8037-2.8097c-0.75257-0.75417-1.9656-0.75509-2.7197-0.00253l-12.111 12.085c-0.75417 0.75257-0.75546 1.9652-0.0029 2.7194l2.8037 2.8097c1.0574 1.0596 0.48166 1.7486 0.00984 2.0839-0.58093 0.16663-1.1115 0.47733-1.5423 0.90311-1.4019 1.3988-1.4145 3.6592-0.028032 5.0484 1.3864 1.3891 3.6465 1.3812 5.0481-0.01765 0.42609-0.42928 0.73766-0.95841 0.90565-1.5381 0.33585-0.47142 1.0259-1.0489 2.0846 0.01208l2.8037 2.8097c0.75257 0.75417 1.9656 0.75583 2.7197 0.0033l2.8097-2.8037c1.0596-1.0574 1.7486-0.48165 2.0839-0.0098 0.16663 0.58093 0.47734 1.1115 0.9031 1.5423 1.3988 1.4019 3.6592 1.4145 5.0484 0.02803z" fill="#3a435f" stroke="#3a435f"/>
  <path id="p9" d="m133.33 88.098c-1.3864-1.3891-3.6465-1.3812-5.0481 0.01765-0.42603 0.42935-0.73767 0.95841-0.90567 1.5381-0.33583 0.47144-1.0259 1.0489-2.0846-0.01208l-2.8037-2.8097c-0.75257-0.75417-1.9659-0.75546-2.7201-0.0029l-2.8097 2.8037c-1.0609 1.0587-0.48349 1.7488-0.0121 2.0846 0.57972 0.16799 1.1089 0.47956 1.5381 0.90565 1.3988 1.4016 1.4067 3.6618 0.0176 5.0481-1.3892 1.3864-3.6496 1.3739-5.0484-0.02804-0.42573-0.43074-0.73647-0.96132-0.9031-1.5422-0.33533-0.47181-1.0243-1.0475-2.0839 0.0098l-2.8097 2.8037c-0.75417 0.75256-0.75509 1.9656-3e-3 2.7197l12.085 12.111c0.75258 0.75418 1.9652 0.75546 2.7194 3e-3l2.8097-2.8037c1.0596-1.0574 1.7486-0.48167 2.0839-0.01 0.16663 0.58094 0.47734 1.1115 0.90311 1.5423 1.3988 1.4019 3.6592 1.4145 5.0484 0.028 1.3891-1.3864 1.3812-3.6465-0.0177-5.0481-0.42928-0.4261-0.95841-0.73767-1.5381-0.90566-0.47141-0.33585-1.0489-1.026 0.0121-2.0846l2.8097-2.8037c0.75417-0.75257 0.75583-1.9656 3e-3 -2.7197l-2.8037-2.8097c-1.0574-1.0596-0.48164-1.7486-0.01-2.0839 0.58093-0.16663 1.1115-0.47734 1.5423-0.9031 1.4019-1.3988 1.4145-3.6592 0.028-5.0484z" fill="#5b6571" stroke="#5b6571"/>
  <path id="p23" d="m3.9583 54.338c-0.75418 0.75258-0.75547 1.9659-0.0029 2.7201l12.085 12.111c0.75258 0.75418 1.9659 0.75547 2.7201 0.0029l2.8097-2.8037c1.0604-1.0582 1.7493-0.48076 2.0843-0.0087 0.1667 0.58051 0.47726 1.1107 0.90274 1.5412 1.3989 1.4016 3.659 1.414 5.0481 0.02766 1.3889-1.3862 1.3812-3.6461-0.01728-5.0478-0.42964-0.4263-0.95908-0.73809-1.5392-0.90603-0.47127-0.33608-1.0472-1.0261 0.01318-2.0843l2.8097-2.8037c0.75417-0.75257 0.75546-1.9659 0.0029-2.7201l-12.085-12.111c-0.75257-0.75418-1.9659-0.75547-2.7201-0.0029l-2.8097 2.8037c-1.0524 1.0501-0.49264 1.738-0.0234 2.077 0.58471 0.16852 1.1181 0.483 1.5498 0.91371 1.3985 1.4017 1.4062 3.6615 0.01728 5.0478-1.3891 1.3863-3.6492 1.3739-5.0481-0.02766-0.42539-0.43054-0.73605-0.96065-0.90274-1.5412-0.33507-0.47198-1.0242-1.0498-2.0847 0.0084z" fill="#3a435f" stroke="#3a435f"/>
  <path id="p21" d="m29.617 73.17c-1.3861-1.3893-3.6463-1.3817-5.0481 0.01692-0.42655 0.42988-0.73873 0.95947-0.90676 1.54-0.33625 0.47116-1.0259 1.0459-2.0835-0.01391l-2.8037-2.8097c-0.75256-0.75417-1.9656-0.75509-2.7197-0.0025l-2.8097 2.8037c-1.0609 1.0587-1.7498 0.47978-2.0847 0.0076-0.16681-0.58025-0.47738-1.1102-0.90275-1.5404-1.3989-1.4016-3.659-1.414-5.0481-0.02767-1.3889 1.3862-1.3812 3.6461 0.017282 5.0478 0.43225 0.43193 0.96675 0.74721 1.5527 0.91591 0.46868 0.33971 1.0239 1.0267-0.026321 2.0747l-2.8097 2.8037c-0.75418 0.75256-0.75583 1.9656-0.00326 2.7197l12.085 12.111c0.75257 0.75418 1.9659 0.75547 2.7201 0.0029l2.8097-2.8037c1.0502-1.048 0.49497-1.735 0.02632-2.0748-0.58598-0.1687-1.1205-0.48398-1.5527-0.91591-1.3985-1.4017-1.4062-3.6615-0.01728-5.0478 1.3891-1.3863 3.6492-1.3739 5.0481 0.02767 0.42524 0.43039 0.73594 0.9602 0.90276 1.5404 0.33482 0.47216 1.0238 1.051 2.0847-0.0076l2.8097-2.8037c0.75417-0.75256 0.75547-1.9659 0.0029-2.7201l-2.8037-2.8097c-1.0582-1.0604-0.48075-1.7492-0.0087-2.0843 0.5805-0.1667 1.1107-0.47727 1.5412-0.90274 1.4014-1.3987 1.414-3.6586 0.02802-5.0477z" fill="#6c6f7f" stroke="#6c6f7f"/>
  <path id="p19" d="m34.846 73.176c-1.3893 1.3861-1.3817 3.6463 0.01692 5.0481 0.42988 0.42655 0.95948 0.73873 1.54 0.90676 0.47116 0.33625 1.0459 1.0259-0.01391 2.0835l-2.8097 2.8037c-0.75417 0.75256-0.7551 1.9656-0.0025 2.7197l2.8037 2.8097c1.0587 1.0609 0.47978 1.7498 0.0076 2.0847-0.58025 0.16681-1.1102 0.47737-1.5404 0.90274-1.4016 1.3989-1.414 3.659-0.02766 5.0481 1.3862 1.3889 3.6461 1.3812 5.0478-0.01728 0.43193-0.43226 0.74721-0.96676 0.9159-1.5527 0.33973-0.46866 1.0268-1.0239 2.0748 0.02633l2.8037 2.8097c0.75257 0.75417 1.9656 0.75582 2.7197 0.0033l12.111-12.085c0.75417-0.75257 0.75546-1.9659 0.0029-2.7201l-2.8037-2.8097c-1.048-1.0502-1.735-0.49498-2.0748-0.02633-0.1687 0.58598-0.48398 1.1205-0.91591 1.5527-1.4017 1.3985-3.6615 1.4062-5.0478 0.01728-1.3863-1.3891-1.3739-3.6492 0.02766-5.0481 0.43025-0.42538 0.96019-0.73594 1.5404-0.90275 0.47212-0.33485 1.051-1.0237-0.0077-2.0847l-2.8037-2.8097c-0.75257-0.75417-1.9659-0.75546-2.7201-0.0029l-2.8097 2.8037c-1.0604 1.0582-1.7492 0.48075-2.0843 0.0087-0.1667-0.5805-0.47726-1.1107-0.90274-1.5412-1.3987-1.4014-3.6586-1.414-5.0477-0.02802z" fill="#3a435f" stroke="#3a435f"/>
  <path id="p7" d="m133.27 142.14c1.3893-1.3861 1.3817-3.6463-0.0169-5.0481-0.42988-0.42654-0.95947-0.73872-1.54-0.90675-0.47116-0.33626-1.046-1.0259 0.0139-2.0835l2.8097-2.8037c0.75417-0.75256 0.75509-1.9656 3e-3 -2.7197l-2.8037-2.8097c-1.0587-1.0609-0.4798-1.7498-8e-3 -2.0846 0.58024-0.16682 1.1102-0.47737 1.5404-0.90275 1.4016-1.3989 1.414-3.659 0.0276-5.0481-1.3862-1.3889-3.646-1.3812-5.0478 0.0173-0.43193 0.43226-0.7472 0.96676-0.9159 1.5527-0.33972 0.46868-1.0268 1.0239-2.0748-0.0263l-2.8037-2.8097c-0.75256-0.75417-1.9656-0.75582-2.7197-3e-3l-12.111 12.085c-0.75417 0.75258-0.75547 1.9659-3e-3 2.7201l2.8037 2.8097c1.048 1.0502 1.735 0.49497 2.0748 0.0263 0.1687-0.58597 0.48398-1.1205 0.91591-1.5527 1.4017-1.3985 3.6616-1.4062 5.0478-0.0173 1.3863 1.3891 1.3739 3.6492-0.0277 5.0481-0.43039 0.42523-0.9602 0.73593-1.5404 0.90276-0.47216 0.33481-1.051 1.0237 8e-3 2.0846l2.8037 2.8097c0.75256 0.75416 1.9659 0.75547 2.7201 3e-3l2.8097-2.8037c1.0604-1.0582 1.7493-0.48075 2.0843-9e-3 0.1667 0.58049 0.47726 1.1107 0.90273 1.5412 1.3987 1.4014 3.6586 1.414 5.0477 0.028z" fill="#3a435f" stroke="#3a435f"/>
  <path id="p29" d="m-0.010452 38.253c1.3893-1.3862 1.3817-3.6463-0.016907-5.0481-0.42939-0.42606-0.95869-0.73746-1.5385-0.9053-0.47143-0.33582-1.0487-1.0261 0.012451-2.085l2.8093-2.8033c0.75418-0.75258 0.75547-1.9659 0.00289-2.7201l-2.8037-2.8097c-1.0587-1.0609-1.7488-0.48351-2.0846-0.01208-0.168 0.57973-0.47956 1.1089-0.90566 1.5381-1.4016 1.3988-3.6618 1.4067-5.0481 0.01764-1.3865-1.3893-1.3739-3.6496 0.028037-5.0484 0.43067-0.42552 0.96084-0.73637 1.5415-0.90311 0.47187-0.33525 1.0486-1.0239-0.0091-2.0839l-2.8037-2.8097c-0.75258-0.75418-1.9655-0.75511-2.7197-0.0025l-12.111 12.085c-0.75418 0.75258-0.75584 1.9655-0.0033 2.7197l12.085 12.111c0.75258 0.75418 1.9659 0.75547 2.7201 0.0029l2.8097-2.8037c1.0611-1.0589 1.7499-0.47982 2.0847-0.0077 0.16659 0.58018 0.4769 1.1101 0.90201 1.5404 1.3989 1.4016 3.659 1.414 5.0481 0.02767z" fill="#465662" stroke="#465662"/>
  <path id="p27" d="m5.2519 8.621c1.3862 1.3893 3.6463 1.3817 5.0481-0.016907 0.42606-0.42939 0.73746-0.95869 0.9053-1.5385 0.33582-0.47143 1.0261-1.0487 2.085 0.012452l2.8033 2.8093c0.75258 0.75418 1.9659 0.75547 2.7201 0.00289l2.8097-2.8037c1.0609-1.0587 0.48351-1.7488 0.01208-2.0846-0.57973-0.168-1.1089-0.47956-1.5381-0.90566-1.3988-1.4016-1.4067-3.6618-0.01764-5.0481 1.3893-1.3865 3.6496-1.3739 5.0484 0.028037 0.42552 0.43067 0.73637 0.96084 0.90311 1.5415 0.33525 0.47187 1.0239 1.0486 2.0839-0.0091l2.8097-2.8037c0.75418-0.75258 0.75511-1.9655 0.0025-2.7197l-12.085-12.111c-0.75258-0.75418-1.9655-0.75584-2.7197-0.0033l-12.111 12.085c-0.75418 0.75258-0.75547 1.9659-0.0029 2.7201l2.8037 2.8097c1.0589 1.0611 0.47982 1.7499 0.00766 2.0847-0.58018 0.16659-1.1101 0.4769-1.5404 0.90201-1.4016 1.3989-1.414 3.659-0.027669 5.0481z" fill="#5b6571" stroke="#5b6571"/>
  <path id="p18" d="m34.852 67.947c1.3862 1.3893 3.6463 1.3817 5.0481-0.01691 0.42606-0.42939 0.73746-0.95869 0.9053-1.5385 0.33582-0.47143 1.0261-1.0487 2.085 0.01245l2.8033 2.8093c0.75258 0.75418 1.9659 0.75547 2.7201 0.0029l2.8097-2.8037c1.0609-1.0587 0.48351-1.7488 0.01208-2.0846-0.57973-0.168-1.1089-0.47956-1.5381-0.90566-1.3988-1.4016-1.4067-3.6618-0.01764-5.0481 1.3893-1.3865 3.6496-1.3739 5.0484 0.02804 0.42552 0.43067 0.73637 0.96084 0.90311 1.5415 0.33525 0.47187 1.0239 1.0486 2.0839-0.0091l2.8097-2.8037c0.75418-0.75258 0.75511-1.9655 0.0025-2.7197l-12.085-12.111c-0.75258-0.75418-1.9655-0.75584-2.7197-0.0033l-12.111 12.085c-0.75418 0.75258-0.75547 1.9659-0.0029 2.7201l2.8037 2.8097c1.0589 1.0611 0.47982 1.7499 0.0077 2.0847-0.58018 0.16659-1.1101 0.4769-1.5404 0.90202-1.4016 1.3989-1.414 3.659-0.02767 5.0481z" fill="#303d4f" stroke="#303d4f"/>
  <path id="p16" d="m64.487 67.978c1.3862 1.3893 3.6463 1.3817 5.0481-0.01691 0.42606-0.42939 0.73746-0.95869 0.9053-1.5385 0.33582-0.47143 1.0261-1.0487 2.085 0.01245l2.8033 2.8093c0.75258 0.75418 1.9659 0.75547 2.7201 0.0029l2.8097-2.8037c1.0609-1.0587 0.48351-1.7488 0.01208-2.0846-0.57973-0.168-1.1089-0.47956-1.5381-0.90566-1.3988-1.4016-1.4067-3.6618-0.01764-5.0481 1.3893-1.3865 3.6496-1.3739 5.0484 0.02804 0.42552 0.43067 0.73637 0.96084 0.90311 1.5415 0.33525 0.47187 1.0239 1.0486 2.0839-0.0091l2.8097-2.8037c0.75418-0.75258 0.75511-1.9655 0.0025-2.7197l-12.085-12.111c-0.75258-0.75418-1.9655-0.75584-2.7197-0.0033l-12.111 12.085c-0.75418 0.75258-0.75547 1.9659-0.0029 2.7201l2.8037 2.8097c1.0589 1.0611 0.47982 1.7499 0.0077 2.0847-0.58018 0.16659-1.1101 0.4769-1.5404 0.90202-1.4016 1.3989-1.414 3.659-0.02767 5.0481z" fill="#465662" stroke="#465662"/>
  <path id="p5" d="m133.26 147.37c-1.3862-1.3893-3.6463-1.3817-5.0481 0.0169-0.42607 0.42939-0.73746 0.95869-0.90531 1.5385-0.33582 0.47144-1.0261 1.0487-2.085-0.0125l-2.8033-2.8093c-0.75258-0.75419-1.9659-0.75547-2.7201-3e-3l-2.8097 2.8037c-1.0609 1.0587-0.4835 1.7488-0.0121 2.0846 0.57972 0.16799 1.1089 0.47956 1.5381 0.90565 1.3988 1.4016 1.4067 3.6618 0.0177 5.0481-1.3893 1.3865-3.6496 1.3739-5.0484-0.028-0.42552-0.43067-0.73637-0.96084-0.90311-1.5415-0.33525-0.47187-1.024-1.0486-2.0839 9e-3l-2.8097 2.8037c-0.75418 0.75258-0.75511 1.9655-3e-3 2.7197l12.085 12.111c0.75258 0.75419 1.9656 0.75585 2.7197 3e-3l12.111-12.085c0.75419-0.75257 0.75548-1.9659 3e-3 -2.7201l-2.8037-2.8097c-1.0589-1.0611-0.47982-1.7499-8e-3 -2.0847 0.58018-0.1666 1.1101-0.47691 1.5404-0.90203 1.4016-1.3989 1.414-3.659 0.0277-5.0481z" fill="#303d4f" stroke="#303d4f"/>
  <path id="p1" d="m162.9 147.4c-1.3862-1.3893-3.6463-1.3817-5.0481 0.0169-0.42605 0.42939-0.73745 0.95869-0.90529 1.5385-0.33582 0.47143-1.0261 1.0487-2.085-0.0125l-2.8033-2.8093c-0.75258-0.75419-1.9659-0.75548-2.7201-3e-3l-2.8097 2.8037c-1.0609 1.0587-0.4835 1.7488-0.0121 2.0846 0.57973 0.16799 1.1089 0.47957 1.5381 0.90566 1.3988 1.4016 1.4067 3.6618 0.0176 5.0481-1.3893 1.3865-3.6496 1.3739-5.0484-0.028-0.42552-0.43067-0.73637-0.96084-0.90311-1.5415-0.33525-0.47187-1.0239-1.0486-2.0839 9e-3l-2.8097 2.8037c-0.75419 0.75257-0.75512 1.9655-3e-3 2.7197l12.085 12.111c0.75258 0.75419 1.9656 0.75584 2.7197 3e-3l12.111-12.085c0.75417-0.75258 0.75546-1.9659 3e-3 -2.7201l-2.8037-2.8097c-1.0589-1.0611-0.47983-1.7499-8e-3 -2.0847 0.58018-0.1666 1.1101-0.4769 1.5404-0.90202 1.4016-1.3989 1.414-3.659 0.0277-5.0481z" fill="#465662" stroke="#465662"/>
  <path id="p2" d="m153.33 132.57c-1.3893 1.3862-1.3817 3.6463 0.0169 5.0482 0.42941 0.42605 0.95871 0.73744 1.5385 0.90531 0.47145 0.33574 1.0486 1.0261-0.0125 2.085l-2.8093 2.8034c-0.75419 0.75258-0.75548 1.9659-3e-3 2.7201l2.8037 2.8097c1.0587 1.061 1.7488 0.48354 2.0846 0.0121 0.16798-0.57974 0.47954-1.1089 0.90566-1.5382 1.4016-1.3988 3.6618-1.4067 5.0481-0.0176 1.3864 1.3893 1.3739 3.6496-0.028 5.0484-0.43066 0.42552-0.96083 0.7364-1.5415 0.90312-0.47162 0.33558-1.0486 1.0239 9e-3 2.0839l2.8037 2.8097c0.75256 0.75418 1.9655 0.7551 2.7197 3e-3l12.111-12.085c0.7542-0.75258 0.75585-1.9656 3e-3 -2.7197l-12.085-12.111c-0.75257-0.75419-1.9659-0.75548-2.7201-3e-3l-2.8097 2.8037c-1.0611 1.0589-1.7498 0.47981-2.0846 8e-3 -0.1666-0.58019-0.47685-1.1101-0.90202-1.5404-1.3989-1.4016-3.659-1.414-5.0481-0.0277z" fill="#303d4f" stroke="#303d4f"/>
  <path id="p3" d="m162.93 117.77c-1.3863-1.3894-3.6467-1.3817-5.0485 0.0173-0.42606 0.4294-0.73746 0.95869-0.90529 1.5385-0.33584 0.47144-1.0264 1.0484-2.085-0.0125l-2.8033-2.8093c-0.75258-0.75418-1.9659-0.75547-2.7201-3e-3l-2.8093 2.8034c-1.0609 1.0587-0.48386 1.7491-0.0125 2.085 0.57981 0.16783 1.1091 0.47927 1.5385 0.9053 1.399 1.4018 1.4067 3.6622 0.0173 5.0485-1.3892 1.3865-3.6496 1.3739-5.0484-0.028-0.42514-0.43029-0.73541-0.96025-0.90202-1.5404-0.33482-0.47215-1.0237-1.0511-2.0846 8e-3l-2.8097 2.8037c-0.75418 0.75259-0.75547 1.9659-3e-3 2.7201l2.8033 2.8093c1.0587 1.061 1.7492 0.48387 2.085 0.0125 0.16783-0.57983 0.47926-1.1091 0.90528-1.5385 1.4018-1.399 3.6622-1.4067 5.0485-0.0173 1.3865 1.3892 1.3739 3.6496-0.028 5.0484-0.43029 0.42515-0.96025 0.73542-1.5404 0.90202-0.47216 0.33482-1.0506 1.0241 8e-3 2.085l2.8033 2.8093c0.75258 0.75416 1.9659 0.75546 2.7201 3e-3l2.8097-2.8037c1.0515-1.0493 0.49352-1.7366 0.0245-2.0758-0.58515-0.16845-1.119-0.48307-1.5509-0.91407-1.399-1.4018-1.4067-3.6622-0.0173-5.0485 1.3892-1.3865 3.6496-1.3739 5.0484 0.028 0.42514 0.43029 0.73542 0.96024 0.90202 1.5404 0.33483 0.47217 1.0241 1.0506 2.085-8e-3l2.8093-2.8033c0.75419-0.75258 0.75549-1.9659 3e-3 -2.7201l-2.8034-2.8093c-1.0587-1.061-0.48014-1.7502-8e-3 -2.085 0.58017-0.1666 1.1101-0.47691 1.5404-0.90201 1.4019-1.3988 1.4145-3.6592 0.028-5.0484z" fill="#6c6f7f" stroke="#6c6f7f"/>
  <path id="p25" d="m5.22 38.258c1.3863 1.3894 3.6467 1.3817 5.0485-0.01728 0.42606-0.42939 0.73745-0.95868 0.90529-1.5385 0.33583-0.47144 1.0263-1.0485 2.085 0.01246l2.8033 2.8093c0.75257 0.75418 1.9659 0.75547 2.7201 0.0029l12.111-12.085c0.75418-0.75258 0.75547-1.9659 0.0029-2.7201l-2.8033-2.8093c-1.0587-1.0609-1.7492-0.48388-2.085-0.01246-0.16784 0.57982-0.47926 1.1091-0.90529 1.5385-1.4018 1.399-3.6622 1.4067-5.0485 0.01727-1.3865-1.3893-1.3739-3.6496 0.02802-5.0484 0.4303-0.42515 0.96026-0.73542 1.5404-0.90202 0.47216-0.33483 1.0506-1.0241-8e-3 -2.085l-2.8034-2.8093c-0.75257-0.75418-1.9659-0.75547-2.7201-0.0029l-2.8097 2.8037c-1.0512 1.049-0.49379 1.7361-0.02487 2.0755 0.58531 0.16849 1.1193 0.48325 1.5513 0.91444 1.399 1.4018 1.4067 3.6622 0.01728 5.0485-1.3893 1.3865-3.6496 1.3739-5.0484-0.02804-0.42514-0.43029-0.73542-0.96024-0.90202-1.5404-0.33482-0.47215-1.0241-1.0506-2.085 8e-3l-2.8093 2.8033c-0.75418 0.75258-0.75547 1.9659-0.0029 2.7201l2.8033 2.8093c1.0587 1.0609 0.48015 1.7502 0.00802 2.085-0.58018 0.1666-1.1101 0.47691-1.5404 0.90202-1.402 1.3988-1.4145 3.6592-0.02803 5.0484z" fill="#6c6f7f" stroke="#6c6f7f"/>
 </g>
</svg>
