<?xml version="1.0" encoding="UTF-8" standalone="no"?>
<!-- Created with Inkscape (http://www.inkscape.org/) -->

<svg
   width="210mm"
   height="297mm"
   viewBox="0 0 210 297"
   version="1.1"
   id="svg1"
   sodipodi:docname="puzzle-piece-layout.svg"
   inkscape:version="1.3.2 (091e20e, 2023-11-25, custom)"
   xmlns:inkscape="http://www.inkscape.org/namespaces/inkscape"
   xmlns:sodipodi="http://sodipodi.sourceforge.net/DTD/sodipodi-0.dtd"
   xmlns="http://www.w3.org/2000/svg"
   xmlns:svg="http://www.w3.org/2000/svg">
  <sodipodi:namedview
     id="namedview1"
     pagecolor="#ffffff"
     bordercolor="#000000"
     borderopacity="0.25"
     inkscape:showpageshadow="2"
     inkscape:pageopacity="0.0"
     inkscape:pagecheckerboard="0"
     inkscape:deskcolor="#d1d1d1"
     inkscape:document-units="mm"
     inkscape:zoom="1.0243018"
     inkscape:cx="416.38117"
     inkscape:cy="505.71031"
     inkscape:window-width="1613"
     inkscape:window-height="992"
     inkscape:window-x="65"
     inkscape:window-y="224"
     inkscape:window-maximized="0"
     inkscape:current-layer="layer1" />
  <defs
     id="defs1">
    <inkscape:path-effect
       effect="bspline"
       id="path-effect7"
       is_visible="true"
       lpeversion="1.3"
       weight="33.333333"
       steps="2"
       helper_size="0"
       apply_no_weight="true"
       apply_with_weight="true"
       only_selected="false"
       uniform="false" />
  </defs>
  <g
     inkscape:label="Layer 1"
     inkscape:groupmode="layer"
     id="layer1">
    <path
       d="m 59.123364,215.56891 c -2.24336,-6e-5 -4.0621,1.83487 -4.06229,4.09845 0.003,0.69171 0.17998,1.37136 0.51367,1.97559 0.11013,0.65244 0.0194,1.67639 -1.69344,1.67639 h -5.49424 c -1.33713,0 -2.4138,1.07667 -2.4138,2.4138 v 5.49476 c 0,1.7137 1.02504,1.80383 1.67741,1.69344 0.60393,-0.33352 1.28321,-0.51023 1.97456,-0.51367 2.26356,-9e-5 4.09874,1.81843 4.09897,4.06177 6e-5,2.24354 -1.8352,4.06238 -4.09897,4.06228 -0.6917,-0.003 -1.37136,-0.17998 -1.97559,-0.51366 -0.65243,-0.11013 -1.67638,-0.0194 -1.67638,1.69344 v 5.49475 c 0,1.33714 1.07667,2.41329 2.4138,2.41329 h 21.47259 c 1.33713,0 2.4138,-1.07615 2.4138,-2.41329 v -5.49475 c 0,-1.71288 1.02394,-1.80357 1.67639,-1.69344 0.60424,0.33369 1.28388,0.5104 1.97559,0.51366 2.26359,-1.8e-4 4.09851,-1.81891 4.09846,-4.06228 -2.3e-4,-2.24317 -1.83507,-4.06158 -4.09846,-4.06177 -0.69136,0.003 -1.37062,0.18014 -1.97456,0.51367 -0.65238,0.11039 -1.67742,0.0203 -1.67742,-1.69344 v -5.49476 c 0,-1.33713 -1.07667,-2.4138 -2.4138,-2.4138 h -5.49476 c -1.7137,0 -1.80382,-1.02504 -1.69343,-1.67742 0.3337,-0.60388 0.51058,-1.28315 0.51418,-1.97456 -1.9e-4,-2.26358 -1.81892,-4.09851 -4.06228,-4.09845 z"
       style="fill:#000000;stroke:none;stroke-width:0.264583;stroke-linecap:round"
       id="path26" />
    <rect
       style="fill:none;stroke:#030303;stroke-width:0.264583;stroke-linecap:round;stroke-dasharray:none;stroke-opacity:1"
       id="rect9-7"
       width="26.300062"
       height="26.300062"
       x="4.4056964"
       y="243.06165"
       ry="2.4136467" />
    <rect
       style="fill:none;stroke:#030303;stroke-width:0.210819;stroke-linecap:round;stroke-dasharray:none;stroke-opacity:1"
       id="rect9-7-2"
       width="20.955847"
       height="20.955847"
       x="18.05299"
       y="105.09868"
       ry="1.9231898" />
    <path
       d="m 169.71935,90.104167 c -1.96273,-1.2e-4 -3.5539,1.60539 -3.55379,3.58582 0.003,0.60489 0.15771,1.19919 0.44959,1.72755 0.0965,0.57073 0.0173,1.46709 -1.48157,1.46709 h -3.96875 c -1.06543,0 -1.92339,0.85796 -1.92339,1.9234 v 17.109033 c 0,1.06544 0.85796,1.9234 1.92339,1.9234 h 3.96875 c 1.49881,0 1.57804,-0.89637 1.48157,-1.4671 -0.29188,-0.52836 -0.44654,-1.12265 -0.44959,-1.72754 -1.1e-4,-1.98043 1.59106,-3.58594 3.55379,-3.58583 1.96273,-1.1e-4 3.5539,1.6054 3.55379,3.58583 -0.003,0.60489 -0.15771,1.19918 -0.44959,1.72754 -0.0965,0.57073 -0.0172,1.4671 1.48157,1.4671 h 3.96875 c 1.06543,0 1.92339,-0.85796 1.92339,-1.9234 v -3.96927 c 0,-1.48508 -0.88013,-1.57584 -1.45159,-1.48363 -0.5327,0.2953 -1.13267,0.45094 -1.74304,0.45217 -1.98043,1.1e-4 -3.58595,-1.59106 -3.58583,-3.55379 -1.2e-4,-1.96273 1.6054,-3.5539 3.58583,-3.55378 0.60488,0.003 1.19918,0.1577 1.72754,0.44958 0.57072,0.0965 1.46709,0.0172 1.46709,-1.48156 v -3.968753 c 0,-1.06544 -0.85796,-1.9234 -1.92339,-1.9234 h -3.96875 c -1.49881,0 -1.57803,-0.89636 -1.48157,-1.46709 0.29188,-0.52836 0.44654,-1.12266 0.44959,-1.72755 1.1e-4,-1.98043 -1.59106,-3.58594 -3.55379,-3.58582 z"
       style="fill:#000000;stroke:none;stroke-width:0.210819;stroke-linecap:round"
       id="path56" />
    <path
       d="m 169.71935,60.112869 c -1.96274,-1.2e-4 -3.5539,1.60539 -3.55379,3.58582 0.003,0.60489 0.15771,1.19919 0.44959,1.72755 0.0965,0.57073 0.0172,1.46709 -1.48157,1.46709 h -3.96874 c -1.06544,0 -1.9234,0.85796 -1.9234,1.9234 v 3.96875 c 0,1.4988 0.89637,1.57803 1.46709,1.48156 0.52836,-0.29188 1.12266,-0.44654 1.72755,-0.44958 1.98042,-1.2e-4 3.58594,1.59105 3.58582,3.55378 1.2e-4,1.96273 -1.6054,3.5539 -3.58582,3.55379 -0.60489,-0.003 -1.19919,-0.15771 -1.72755,-0.44958 -0.57072,-0.0965 -1.46709,-0.0178 -1.46709,1.48104 v 3.96927 c 0,1.06544 0.85796,1.9234 1.9234,1.9234 h 3.96874 c 1.49881,0 1.57803,-0.89637 1.48157,-1.4671 -0.29188,-0.52836 -0.44654,-1.12265 -0.44959,-1.72754 -1.1e-4,-1.98043 1.59106,-3.58594 3.55379,-3.58583 1.96273,-1.1e-4 3.5539,1.6054 3.55379,3.58583 -0.003,0.60489 -0.15771,1.19918 -0.44959,1.72754 -0.0965,0.57073 -0.0172,1.4671 1.48157,1.4671 h 3.96875 c 1.06543,0 1.92339,-0.85796 1.92339,-1.9234 v -3.96927 c 0,-1.48552 -0.88067,-1.57598 -1.4521,-1.48363 -0.53256,0.29522 -1.13234,0.45085 -1.74253,0.45217 -1.98043,1.1e-4 -3.58595,-1.59106 -3.58583,-3.55379 -1.2e-4,-1.96273 1.6054,-3.5539 3.58583,-3.55378 0.60488,0.003 1.19918,0.1577 1.72754,0.44958 0.57073,0.0965 1.46709,0.0172 1.46709,-1.48156 v -3.96875 c 0,-1.06544 -0.85796,-1.9234 -1.92339,-1.9234 h -3.96875 c -1.49882,0 -1.57803,-0.89636 -1.48157,-1.46709 0.29188,-0.52836 0.44654,-1.12266 0.44959,-1.72755 1.1e-4,-1.98043 -1.59105,-3.58594 -3.55379,-3.58582 z"
       style="fill:#000000;stroke:none;stroke-width:0.210819;stroke-linecap:round"
       id="path53" />
    <path
       d="m 114.63951,60.113127 c -1.96253,-1.15e-4 -3.55361,1.605079 -3.55378,3.58531 0.003,0.604891 0.1577,1.199183 0.44958,1.727544 0.0965,0.570714 0.0175,1.467094 -1.48156,1.467094 H 106.085 c -1.06544,0 -1.9234,0.857961 -1.9234,1.923396 v 17.10955 c 0,1.065436 0.85796,1.92288 1.9234,1.92288 h 17.10903 c 1.06544,0 1.9234,-0.857444 1.9234,-1.92288 v -3.969266 c 0,-1.485938 -0.88121,-1.576633 -1.45263,-1.484148 -0.5324,0.295128 -1.13199,0.450762 -1.74201,0.452169 -1.98042,1.13e-4 -3.58594,-1.591058 -3.58583,-3.553788 1.8e-4,-1.962528 1.60561,-3.553384 3.58583,-3.553272 0.60484,0.0029 1.19914,0.157371 1.72754,0.449069 0.57073,0.09646 1.4671,0.01775 1.4671,-1.481047 v -3.969267 c 0,-1.065435 -0.85796,-1.923396 -1.9234,-1.923396 h -3.96927 c -1.49904,0 -1.57758,-0.896379 -1.48104,-1.467094 0.29188,-0.528361 0.44654,-1.122653 0.44958,-1.727544 -1.7e-4,-1.980231 -1.59125,-3.585425 -3.55379,-3.58531 z"
       style="fill:#000000;stroke:none;stroke-width:0.210819;stroke-linecap:round"
       id="path48" />
    <path
       d="m 84.334904,60.113127 c -1.962293,1.73e-4 -3.553102,1.605326 -3.553272,3.58531 0.0151,0.565912 0.162793,1.12022 0.430982,1.617473 0.122105,0.555978 0.133328,1.577165 -1.46296,1.577165 h -3.969267 c -1.065414,0 -1.923396,0.857982 -1.923396,1.923396 v 3.969267 c 0,1.596653 1.021794,1.585145 1.577681,1.46296 0.497097,-0.26811 1.051221,-0.415806 1.616956,-0.430982 1.980182,-1.12e-4 3.585653,1.590783 3.585827,3.553272 1.14e-4,1.962691 -1.605442,3.553901 -3.585827,3.553788 -0.56556,-0.01526 -1.119497,-0.162949 -1.616439,-0.430981 -0.555776,-0.12228 -1.578198,-0.134143 -1.578198,1.46296 v 3.969266 c 0,1.065414 0.857982,1.92288 1.923396,1.92288 h 3.969267 c 1.597207,0 1.584739,1.022423 1.462443,1.578199 -0.267936,0.497153 -0.415447,1.051251 -0.430465,1.616955 1.7e-4,1.980024 1.59094,3.585137 3.553272,3.585311 1.962534,1.14e-4 3.553618,-1.605083 3.553788,-3.585311 -0.0151,-0.565529 -0.162606,-1.11944 -0.430464,-1.616439 -0.122401,-0.555663 -0.135226,-1.578715 1.462443,-1.578715 h 3.969266 c 1.065414,0 1.92288,-0.857466 1.92288,-1.92288 v -3.969266 c 0,-1.597132 1.022413,-1.585242 1.578199,-1.46296 0.497103,0.268113 1.051214,0.415805 1.616955,0.430981 1.980208,-1.7e-4 3.585429,-1.591274 3.585309,-3.553788 -1.7e-4,-1.962313 -1.605305,-3.553102 -3.585309,-3.553272 -0.565917,0.0151 -1.120215,0.162791 -1.617472,0.430982 -0.555895,0.122187 -1.577682,0.133715 -1.577682,-1.46296 v -3.969267 c 0,-1.065414 -0.857466,-1.923396 -1.92288,-1.923396 h -3.969266 c -1.596741,0 -1.58516,-1.021813 -1.46296,-1.577682 0.26811,-0.497098 0.415805,-1.05122 0.430981,-1.616956 -1.7e-4,-1.980188 -1.591293,-3.585425 -3.553788,-3.58531 z"
       style="fill:#000000;stroke:none;stroke-width:0.210819;stroke-linecap:round"
       id="path47" />
    <path
       d="m 60.028377,60.113127 c -1.962534,-1.15e-4 -3.553618,1.605083 -3.553788,3.58531 0.003,0.604889 0.157707,1.199184 0.449585,1.727544 0.09654,0.570715 0.01801,1.467094 -1.481047,1.467094 h -3.969266 c -1.065436,0 -1.923397,0.857961 -1.923397,1.923396 v 3.969267 c 0,1.498808 0.896368,1.577514 1.467094,1.481047 0.528407,-0.291698 1.122701,-0.446182 1.727543,-0.449069 1.980222,-1.12e-4 3.585654,1.590744 3.585828,3.553272 1.14e-4,1.96273 -1.605403,3.553901 -3.585828,3.553788 -0.605414,-0.0028 -1.200275,-0.157456 -1.729094,-0.449585 -0.570813,-0.09604 -1.465543,-0.01587 -1.465543,1.481564 v 3.969266 c 0,1.065436 0.857961,1.92288 1.923397,1.92288 h 3.969266 c 1.49904,0 1.577585,-0.896383 1.481047,-1.467094 -0.291878,-0.528358 -0.44654,-1.122655 -0.449585,-1.727543 1.7e-4,-1.980223 1.591258,-3.585425 3.553788,-3.585311 1.96253,-1.14e-4 3.553619,1.605088 3.553789,3.585311 -0.003,0.604888 -0.157708,1.199185 -0.449585,1.727543 -0.09653,0.570711 -0.01747,1.467094 1.481563,1.467094 h 3.96875 c 1.065435,0 1.923397,-0.857444 1.923397,-1.92288 v -17.10955 c 0,-1.065435 -0.857962,-1.923396 -1.923397,-1.923396 h -3.96875 c -1.499039,0 -1.578097,-0.896381 -1.481563,-1.467094 0.291878,-0.52836 0.44654,-1.122655 0.449585,-1.727544 -1.7e-4,-1.980227 -1.591255,-3.585425 -3.553789,-3.58531 z"
       style="fill:#000000;stroke:none;stroke-width:0.210819;stroke-linecap:round"
       id="path46" />
    <path
       d="m 28.531075,60.487781 c -1.962718,-1.14e-4 -3.553901,1.605414 -3.553788,3.585827 0.0029,0.605235 0.157542,1.199915 0.449585,1.728577 0.09619,0.570783 0.01631,1.46606 -1.481564,1.46606 h -3.969266 c -1.065425,0 -1.92288,0.857456 -1.92288,1.92288 v 17.10955 c 0,1.065425 0.857455,1.923397 1.92288,1.923397 h 17.10955 c 1.065424,0 1.923396,-0.857972 1.923396,-1.923397 v -3.969266 c 0,-1.499042 0.89638,-1.577581 1.467094,-1.481047 0.528412,0.2917 1.122696,0.446182 1.727543,0.449068 1.980238,1.13e-4 3.585654,-1.590727 3.585828,-3.553271 1.14e-4,-1.962746 -1.605386,-3.553901 -3.585828,-3.553788 -0.605639,0.0029 -1.200683,0.157707 -1.72961,0.450101 -0.57083,0.09597 -1.465027,0.01511 -1.465027,-1.48208 v -3.969267 c 0,-1.065424 -0.857972,-1.92288 -1.923396,-1.92288 h -3.969267 c -1.498798,0 -1.577509,-0.896369 -1.481047,-1.467093 0.291696,-0.528404 0.446182,-1.122705 0.449069,-1.727544 1.12e-4,-1.98021 -1.590755,-3.585653 -3.553272,-3.585827 z"
       style="fill:#000000;stroke:none;stroke-width:0.210819;stroke-linecap:round"
       id="path45" />
    <path
       d="m 179.61436,32.990751 a 3.5535834,3.5856214 0 0 1 0.45269,1.74718 3.5535834,3.5856214 0 0 1 -3.55328,3.585828 3.5535834,3.5856214 0 0 1 -3.55378,-3.585828 3.5535834,3.5856214 0 0 1 0.44958,-1.727543 c 0.0965,-0.570731 0.0172,-1.467094 -1.48156,-1.467094 h -3.96927 c -1.06545,0 -1.92288,0.857951 -1.92288,1.923397 v 3.969267 c 0,1.498822 0.89636,1.577515 1.46709,1.481046 a 3.5856214,3.5535834 0 0 1 1.72755,-0.449068 3.5856214,3.5535834 0 0 1 3.58582,3.553272 3.5856214,3.5535834 0 0 1 -3.58582,3.553788 3.5856214,3.5535834 0 0 1 -1.72961,-0.450102 c -0.57085,-0.0959 -1.46503,-0.01488 -1.46503,1.48208 v 3.969267 c 0,1.065446 0.85743,1.92288 1.92288,1.92288 h 3.96927 c 1.4972,0 1.57805,-0.894192 1.48208,-1.465027 a 3.5535834,3.5856214 0 0 1 -0.4501,-1.72961 3.5535834,3.5856214 0 0 1 3.55378,-3.585828 3.5535834,3.5856214 0 0 1 3.55328,3.585828 3.5535834,3.5856214 0 0 1 -0.45269,1.74718 c -0.0911,0.571598 0.003,1.447457 1.48466,1.447457 h 3.96927 c 1.06545,0 1.9234,-0.857434 1.9234,-1.92288 v -3.969267 c 0,-1.480048 -0.87426,-1.575798 -1.44591,-1.48518 a 3.5856214,3.5535834 0 0 1 -1.74873,0.453202 3.5856214,3.5535834 0 0 1 -3.58583,-3.553788 3.5856214,3.5535834 0 0 1 3.58583,-3.553272 3.5856214,3.5535834 0 0 1 1.72754,0.449068 c 0.57073,0.09646 1.4671,0.01777 1.4671,-1.481046 v -3.969267 c 0,-1.065446 -0.85795,-1.923397 -1.9234,-1.923397 h -3.96927 c -1.48138,0 -1.5757,0.87585 -1.48466,1.447457 z"
       style="fill:#000000;stroke:none;stroke-width:0.210819;stroke-linecap:round"
       id="path44" />
    <path
       d="m 148.08812,24.76283 c -1.96275,-1.15e-4 -3.5539,1.605386 -3.55379,3.585827 0.003,0.604847 0.15737,1.199132 0.44907,1.727543 0.0965,0.570708 0.018,1.467094 -1.48105,1.467094 h -3.96926 c -1.06543,0 -1.9234,0.857972 -1.9234,1.923397 v 3.969267 c 0,1.498792 0.89637,1.577513 1.46709,1.481046 0.52856,-0.291778 1.12305,-0.446268 1.72806,-0.449068 1.98,1.7e-4 3.58514,1.590963 3.58531,3.553272 1.2e-4,1.96251 -1.6051,3.553618 -3.58531,3.553788 -0.6058,-0.0028 -1.20105,-0.157629 -1.73012,-0.450102 -0.57084,-0.09589 -1.46503,-0.01485 -1.46503,1.48208 v 3.969267 c 0,1.065425 0.85797,1.92288 1.9234,1.92288 h 3.96926 c 1.49881,0 1.57751,0.896367 1.48105,1.467094 -0.2917,0.528407 -0.44618,1.122701 -0.44907,1.727543 -1.1e-4,1.980426 1.59106,3.585942 3.55379,3.585828 1.96253,-1.74e-4 3.55338,-1.605606 3.55327,-3.585828 -0.003,-0.604842 -0.15737,-1.199136 -0.44907,-1.727543 -0.0965,-0.570729 -0.0178,-1.467094 1.48105,-1.467094 h 3.96927 c 1.06542,0 1.92339,-0.857455 1.92339,-1.92288 v -3.969267 c 0,-1.482764 -0.87746,-1.576152 -1.44901,-1.484664 -0.53356,0.295981 -1.13468,0.451819 -1.74614,0.452686 -1.98021,-1.7e-4 -3.58543,-1.591278 -3.58531,-3.553788 1.7e-4,-1.962309 1.60531,-3.553102 3.58531,-3.553272 0.60501,0.0028 1.1995,0.15729 1.72806,0.449068 0.57072,0.09646 1.46709,0.01774 1.46709,-1.481046 v -3.969267 c 0,-1.065425 -0.85797,-1.923397 -1.92339,-1.923397 h -3.96927 c -1.49903,0 -1.57758,-0.896385 -1.48105,-1.467094 0.2917,-0.528411 0.44618,-1.122696 0.44907,-1.727543 1.1e-4,-1.980237 -1.59073,-3.585654 -3.55327,-3.585827 z"
       style="fill:#000000;stroke:none;stroke-width:0.210819;stroke-linecap:round"
       id="path43" />
    <path
       d="m 115.64255,24.85223 c -1.96251,1.74e-4 -3.55338,1.605617 -3.55327,3.585827 0.003,0.604839 0.15737,1.19914 0.44907,1.727544 0.0965,0.57072 0.0178,1.467093 -1.48105,1.467093 h -3.96926 c -1.06543,0 -1.9234,0.857973 -1.9234,1.923397 v 3.969267 c 0,1.498793 0.89638,1.577513 1.46709,1.481047 0.52841,-0.291695 1.12271,-0.446182 1.72755,-0.449069 1.9802,-1.12e-4 3.58565,1.590763 3.58582,3.553272 1.2e-4,1.96271 -1.60542,3.553901 -3.58582,3.553788 -0.60563,-0.0029 -1.2007,-0.157712 -1.72961,-0.450102 -0.57084,-0.0959 -1.46503,-0.01485 -1.46503,1.482081 v 3.969266 c 0,1.065425 0.85797,1.92288 1.9234,1.92288 h 3.96926 c 1.49903,0 1.57759,-0.896391 1.48105,-1.467094 -0.29169,-0.528401 -0.44618,-1.122706 -0.44907,-1.727543 -1.1e-4,-1.980202 1.59077,-3.585654 3.55327,-3.585827 1.96271,-1.15e-4 3.5539,1.605422 3.55379,3.585827 -0.003,0.605628 -0.15771,1.200693 -0.4501,1.72961 -0.096,0.570821 -0.0151,1.465027 1.48208,1.465027 h 3.96927 c 1.06542,0 1.92288,-0.857455 1.92288,-1.92288 v -3.969266 c 0,-1.496958 0.89418,-1.577978 1.46502,-1.482081 0.52893,0.292394 1.12398,0.447245 1.72961,0.450102 1.98044,1.13e-4 3.58595,-1.591046 3.58583,-3.553788 -1.7e-4,-1.96254 -1.60559,-3.553384 -3.58583,-3.553272 -0.60484,0.0029 -1.19913,0.157369 -1.72754,0.449069 -0.57072,0.09647 -1.46709,0.01776 -1.46709,-1.481047 v -3.969267 c 0,-1.065424 -0.85746,-1.923397 -1.92288,-1.923397 h -3.96927 c -1.49694,0 -1.57798,-0.894187 -1.48208,-1.465026 0.29239,-0.52892 0.44724,-1.12398 0.4501,-1.729611 1.1e-4,-1.980413 -1.59107,-3.585941 -3.55379,-3.585827 z"
       style="fill:#000000;stroke:none;stroke-width:0.210819;stroke-linecap:round"
       id="path42" />
    <path
       d="m 83.019739,24.85223 c -1.962513,1.74e-4 -3.553385,1.605621 -3.553272,3.585827 0.0029,0.604838 0.157373,1.199141 0.449068,1.727544 0.09647,0.570722 0.01775,1.467093 -1.481046,1.467093 h -3.969267 c -1.065425,0 -1.923397,0.857973 -1.923397,1.923397 v 3.969267 c 0,1.498793 0.896377,1.577513 1.467094,1.481047 0.528402,-0.291695 1.122707,-0.446182 1.727543,-0.449069 1.980202,-1.12e-4 3.585654,1.590763 3.585828,3.553272 1.14e-4,1.96271 -1.605422,3.553901 -3.585828,3.553788 -0.605628,-0.0029 -1.200692,-0.157712 -1.72961,-0.450102 -0.570835,-0.0959 -1.465027,-0.01485 -1.465027,1.482081 v 3.969266 c 0,1.065425 0.857972,1.92288 1.923397,1.92288 h 17.10955 c 1.065425,0 1.92288,-0.857455 1.92288,-1.92288 v -3.969266 c 0,-1.496958 0.894182,-1.577978 1.465027,-1.482081 0.528924,0.292393 1.123975,0.447245 1.72961,0.450102 1.98043,1.13e-4 3.585941,-1.591054 3.585831,-3.553788 -1.8e-4,-1.962532 -1.605605,-3.553384 -3.585831,-3.553272 -0.604843,0.0029 -1.199135,0.157371 -1.727543,0.449069 -0.570725,0.09647 -1.467094,0.01777 -1.467094,-1.481047 v -3.969267 c 0,-1.065424 -0.857455,-1.923397 -1.92288,-1.923397 h -3.969267 c -1.496942,0 -1.577976,-0.894185 -1.48208,-1.465026 0.29239,-0.528919 0.447245,-1.123981 0.450102,-1.729611 1.13e-4,-1.980409 -1.591074,-3.585941 -3.553788,-3.585827 z"
       style="fill:#000000;stroke:none;stroke-width:0.210819;stroke-linecap:round"
       id="path41" />
    <path
       d="m 47.484957,32.218188 c -1.065436,0 -1.923397,0.857962 -1.923397,1.923397 v 17.10955 c 0,1.065436 0.857961,1.923397 1.923397,1.923397 h 3.969267 c 1.498076,0 1.577803,0.895285 1.481563,1.46606 -0.292045,0.528667 -0.446713,1.123338 -0.449585,1.728577 1.7e-4,1.980228 1.591254,3.585425 3.553788,3.585311 1.962332,-1.74e-4 3.553102,-1.605287 3.553272,-3.585311 -0.0029,-0.605239 -0.15754,-1.19991 -0.449585,-1.728577 -0.09625,-0.570777 -0.01653,-1.46606 1.481563,-1.46606 h 3.969267 c 1.065435,0 1.923397,-0.857961 1.923397,-1.923397 v -17.10955 c 0,-1.065435 -0.857962,-1.923397 -1.923397,-1.923397 H 60.62524 c -1.486668,0 -1.576345,0.882269 -1.48363,1.453659 0.294863,0.532296 0.450316,1.131695 0.451652,1.741495 -1.7e-4,1.98002 -1.590943,3.585137 -3.553272,3.585311 -1.96253,1.14e-4 -3.553618,-1.605087 -3.553788,-3.585311 0.0029,-0.605238 0.15754,-1.199911 0.449585,-1.728576 0.09624,-0.570774 0.01651,-1.466578 -1.481563,-1.466578 z"
       style="fill:#000000;stroke:none;stroke-width:0.210819;stroke-linecap:round"
       id="path40" />
    <path
       d="m 28.531075,25.438241 c -1.962514,-1.15e-4 -3.553618,1.605103 -3.553788,3.58531 0.0027,0.605584 0.157375,1.200644 0.449585,1.729611 0.09599,0.570823 0.01566,1.465026 -1.481564,1.465026 h -3.969266 c -1.065425,0 -1.92288,0.857973 -1.92288,1.923397 v 3.969267 c 0,1.498807 -0.896366,1.577509 -1.467094,1.481047 -0.528562,-0.291782 -1.123041,-0.446268 -1.72806,-0.449069 -1.980228,1.7e-4 -3.585425,1.591255 -3.585311,3.553789 1.74e-4,1.962332 1.605287,3.553101 3.585311,3.553271 0.611073,-8.84e-4 1.211794,-0.156534 1.745113,-0.452169 0.57152,-0.09177 1.450041,4.63e-4 1.450041,1.484147 v 3.969267 c 0,1.065425 0.857455,1.923397 1.92288,1.923397 h 17.10955 c 1.065424,0 1.923396,-0.857972 1.923396,-1.923397 v -3.969267 c 0,-1.483657 -0.878531,-1.575918 -1.45004,-1.484147 -0.533313,0.295632 -1.134047,0.451285 -1.745113,0.452169 -1.980001,-1.7e-4 -3.585137,-1.590963 -3.585311,-3.553271 -1.14e-4,-1.962511 1.605107,-3.553619 3.585311,-3.553789 0.605011,0.0028 1.199505,0.157291 1.72806,0.449069 0.57072,0.09646 1.467093,0.01774 1.467093,-1.481047 v -3.969267 c 0,-1.065424 -0.857972,-1.923397 -1.923396,-1.923397 h -3.969267 c -1.498067,0 -1.577803,-0.895288 -1.481563,-1.46606 0.292042,-0.528661 0.446713,-1.123343 0.449585,-1.728577 -1.7e-4,-1.980004 -1.590959,-3.585137 -3.553272,-3.58531 z"
       style="fill:#000000;stroke:none;stroke-width:0.210819;stroke-linecap:round"
       id="path39" />
    <path
       d="m 83.655215,176.87184 c -1.337145,0 -2.413806,1.07666 -2.413806,2.41381 v 21.47259 c 0,1.33715 1.076661,2.41381 2.413806,2.41381 h 5.494238 c 1.712871,0 1.803571,1.02394 1.693441,1.67638 -0.33369,0.60424 -0.510402,1.28388 -0.513668,1.97559 1.89e-4,2.26359 1.818918,4.09852 4.062288,4.09846 2.24337,6e-5 4.062086,-1.83487 4.062276,-4.09846 -0.002,-0.69741 -0.17939,-1.38292 -0.516756,-1.99161 -0.10574,-0.65321 -0.003,-1.66036 1.696016,-1.66036 h 5.49475 c 1.33715,0 2.41381,-1.07666 2.41381,-2.41381 v -21.47259 c 0,-1.33715 -1.07666,-2.41381 -2.41381,-2.41381 h -5.49475 c -1.699106,0 -1.801896,1.0077 -1.696016,1.66088 0.337276,0.60854 0.515146,1.29386 0.516756,1.9911 1e-4,2.26379 -1.818716,4.09903 -4.062276,4.09897 -2.24357,6e-5 -4.062382,-1.83518 -4.062288,-4.09897 0.0033,-0.69171 0.179978,-1.37135 0.513668,-1.97559 0.11012,-0.65244 0.0194,-1.67639 -1.693441,-1.67639 z"
       style="fill:#000000;fill-opacity:1;stroke:none;stroke-width:0.264583;stroke-linecap:round"
       id="path20" />
    <path
       d="m 59.915201,171.32347 c -2.243568,-6e-5 -4.062378,1.83516 -4.062279,4.09897 0.003,0.69171 0.179969,1.37135 0.51366,1.97559 0.110133,0.65243 0.0194,1.67638 -1.693441,1.67638 h -5.494239 c -1.337128,-1e-5 -2.413799,1.07668 -2.4138,2.41381 l 1e-6,5.49424 c -2e-6,1.69498 -1.002886,1.80163 -1.656229,1.69704 -0.609848,-0.33824 -1.296892,-0.51628 -1.995743,-0.51727 -2.263779,-9e-5 -4.099038,1.81873 -4.098977,4.06228 -5.9e-5,2.24354 1.835197,4.06239 4.098979,4.06229 0.698669,-0.001 1.385507,-0.17914 1.995221,-0.51729 0.653327,-0.10472 1.65675,0.001 1.656751,1.69654 l -4e-6,5.49477 c 4e-6,1.33712 1.076673,2.41379 2.413801,2.4138 h 21.4726 c 1.337132,-1e-5 2.413803,-1.07668 2.413798,-2.4138 l 5e-6,-5.49477 c -10e-7,-1.69591 -1.003951,-1.80141 -1.657264,-1.69653 -0.609561,0.33806 -1.296211,0.51612 -1.994709,0.51728 -2.263769,9e-5 -4.099037,-1.81875 -4.098979,-4.06229 -6e-5,-2.24355 1.835211,-4.06238 4.098977,-4.06228 0.698684,9.9e-4 1.385521,0.17914 1.995232,0.51728 0.65332,0.10472 1.656739,-0.002 1.656741,-1.69705 l -10e-7,-5.49424 c 10e-7,-1.33713 -1.076668,-2.41382 -2.4138,-2.41381 h -5.494761 c -1.711939,0 -1.803262,-1.02287 -1.693437,-1.67536 0.334036,-0.60448 0.510928,-1.2845 0.514178,-1.97661 1.01e-4,-2.2638 -1.818709,-4.09903 -4.062281,-4.09897 z"
       style="fill:#000000;stroke:none;stroke-width:0.264583;stroke-linecap:round"
       id="path18" />
    <path
       d="m 169.70858,252.20385 c -2.24359,-6e-5 -4.06238,1.83516 -4.06229,4.09897 0.003,0.69171 0.17998,1.37135 0.51367,1.97559 0.11013,0.65244 0.0194,1.67638 -1.69344,1.67638 h -5.49424 c -1.33714,0 -2.4138,1.07666 -2.4138,2.41381 v 5.49424 c 0,1.71286 1.02394,1.80357 1.67638,1.69343 0.60424,-0.33368 1.28388,-0.51039 1.97559,-0.51366 2.26379,-9e-5 4.09904,1.81872 4.09898,4.06229 6e-5,2.24356 -1.83519,4.06237 -4.09898,4.06228 -0.6921,-0.003 -1.37212,-0.18015 -1.97662,-0.51418 -0.6525,-0.10985 -1.67535,-0.0185 -1.67535,1.69344 v 5.49475 c 0,1.33715 1.07666,2.41381 2.4138,2.41381 h 21.47259 c 1.33715,0 2.41381,-1.07666 2.41381,-2.41381 V 262.3686 c 0,-1.33715 -1.07666,-2.41381 -2.41381,-2.41381 h -5.49475 c -1.71194,0 -1.80329,-1.02285 -1.69344,-1.67535 0.33404,-0.6045 0.51093,-1.28451 0.51418,-1.97662 1e-4,-2.26381 -1.8187,-4.09903 -4.06228,-4.09897 z"
       style="fill:#000000;stroke:none;stroke-width:0.264583;stroke-linecap:round"
       id="path15" />
    <path
       d="m 127.49655,260.08708 c -1.33715,0 -2.41381,1.07666 -2.41381,2.41381 v 5.49424 c 0,1.69914 -1.0077,1.8019 -1.66088,1.69602 -0.60859,-0.33711 -1.2939,-0.5148 -1.99109,-0.51625 -2.2638,-10e-5 -4.09904,1.81871 -4.09898,4.06228 -6e-5,2.24357 1.83518,4.06238 4.09898,4.06229 0.69724,-0.002 1.38255,-0.17948 1.99109,-0.51677 0.65319,-0.10587 1.66088,-0.003 1.66088,1.69602 v 5.49476 c 0,1.33714 1.07666,2.41381 2.41381,2.41381 h 21.47259 c 1.33714,0 2.41381,-1.07667 2.41381,-2.41381 v -21.47259 c 0,-1.33715 -1.07667,-2.41381 -2.41381,-2.41381 h -5.49476 c -1.71193,0 -1.80328,1.02285 -1.69343,1.67535 0.33403,0.6045 0.51093,1.28452 0.51418,1.97662 9e-5,2.2638 -1.81872,4.09904 -4.06229,4.09898 -2.24356,6e-5 -4.06238,-1.83518 -4.06228,-4.09898 0.003,-0.6917 0.17998,-1.37135 0.51366,-1.97559 0.11013,-0.65243 0.0194,-1.67638 -1.69343,-1.67638 z"
       style="fill:#000000;stroke:none;stroke-width:0.264583;stroke-linecap:round"
       id="path13" />
    <path
       d="m 94.523794,251.95695 c -2.24353,-6e-5 -4.06238,1.83522 -4.06228,4.09898 0.0174,0.64654 0.18612,1.27981 0.49248,1.84795 0.13979,0.6353 0.15352,1.80402 -1.67225,1.80402 h -5.494242 c -1.337119,0 -2.413806,1.07669 -2.413806,2.41381 v 5.49424 c 0,1.82576 1.168722,1.81204 1.804024,1.67225 0.568131,-0.30636 1.201406,-0.47512 1.847949,-0.49248 2.263747,-1e-4 4.099034,1.81876 4.098975,4.06228 5.9e-5,2.24352 -1.835228,4.06238 -4.098975,4.06229 -0.646761,-0.0174 -1.280226,-0.18638 -1.848466,-0.493 -0.635413,-0.13969 -1.803507,-0.15304 -1.803507,1.67225 v 5.49476 c 0,1.33712 1.076687,2.41381 2.413806,2.41381 h 5.494242 c 1.8258,0 1.81204,1.1687 1.67225,1.80402 -0.30636,0.56814 -0.47512,1.20139 -0.49248,1.84795 1.9e-4,2.26359 1.81891,4.09851 4.06228,4.09845 2.24338,6e-5 4.062096,-1.83486 4.062286,-4.09845 -9.9e-4,-0.69886 -0.17906,-1.38588 -0.51728,-1.99575 -0.10459,-0.65334 0.001,-1.65622 1.69653,-1.65622 h 5.49476 c 1.33712,0 2.41381,-1.07669 2.41381,-2.41381 v -5.49476 c 0,-1.82532 1.16808,-1.81194 1.8035,-1.67225 0.56825,0.30662 1.2017,0.47556 1.84847,0.493 2.26358,-1.9e-4 4.09852,-1.81893 4.09846,-4.06229 6e-5,-2.24335 -1.83488,-4.06209 -4.09846,-4.06228 -0.64655,0.0174 -1.27981,0.18612 -1.84795,0.49248 -0.63531,0.1398 -1.80402,0.15353 -1.80402,-1.67225 v -5.49424 c 0,-1.33712 -1.07669,-2.41381 -2.41381,-2.41381 h -5.49476 c -1.825306,0 -1.81194,-1.16809 -1.67225,-1.80351 0.30662,-0.56824 0.47556,-1.2017 0.493,-1.84846 9e-5,-2.26376 -1.818756,-4.09904 -4.062286,-4.09898 z"
       style="fill:#000000;stroke:none;stroke-width:0.264583;stroke-linecap:round"
       id="path11" />
    <path
       d="m 59.123369,252.46842 c -2.24357,-6e-5 -4.06238,1.83518 -4.06229,4.09898 0.003,0.69171 0.17998,1.37135 0.51367,1.97559 0.11013,0.65244 0.0194,1.67638 -1.69344,1.67638 H 48.38707 c -1.337145,0 -2.413806,1.07666 -2.413806,2.41381 v 5.49424 c 0,1.71286 1.023946,1.80357 1.676383,1.69343 0.60424,-0.33368 1.283883,-0.5104 1.975592,-0.51366 2.26379,-10e-5 4.09903,1.81872 4.09897,4.06228 6e-5,2.24357 -1.83518,4.06238 -4.09897,4.06229 -0.692105,-0.003 -1.372127,-0.18015 -1.976625,-0.51418 -0.652497,-0.10985 -1.67535,-0.0185 -1.67535,1.69343 v 5.49476 c 0,1.33714 1.076661,2.41381 2.413806,2.41381 h 5.494239 c 1.71331,0 1.80371,-1.0245 1.69344,-1.6769 -0.33361,-0.60409 -0.51032,-1.28355 -0.51367,-1.97508 -9e-5,-2.26379 1.81872,-4.09903 4.06229,-4.09897 2.24356,-6e-5 4.06238,1.83518 4.06228,4.09897 -0.002,0.69724 -0.17948,1.38256 -0.51676,1.99109 -0.10587,0.65319 -0.003,1.66089 1.69602,1.66089 h 5.49475 c 1.33715,0 2.41381,-1.07667 2.41381,-2.41381 v -21.47259 c 0,-1.33715 -1.07666,-2.41381 -2.41381,-2.41381 h -5.49475 c -1.71195,0 -1.80329,-1.02285 -1.69344,-1.67535 0.33404,-0.6045 0.51093,-1.28452 0.51418,-1.97662 1e-4,-2.2638 -1.81871,-4.09904 -4.06228,-4.09898 z"
       style="fill:#000000;stroke:none;stroke-width:0.264583;stroke-linecap:round"
       id="path6" />
    <path
       d="m 189.55233,215.56891 c -2.24355,-6e-5 -4.06238,1.8352 -4.06228,4.09897 0.003,0.69171 0.17997,1.37136 0.51366,1.97559 0.11013,0.65244 0.0194,1.67639 -1.69344,1.67639 h -5.49424 c -1.33713,0 -2.4138,1.07667 -2.4138,2.4138 v 21.47259 c 0,1.33714 1.07667,2.41381 2.4138,2.41381 h 21.4726 c 1.33713,0 2.4138,-1.07667 2.4138,-2.41381 v -5.49475 c 0,-1.71372 1.02503,-1.80383 1.67742,-1.69344 0.60389,0.33371 1.28315,0.51059 1.97456,0.51418 2.2636,-1.8e-4 4.09851,-1.8189 4.09845,-4.06228 6e-5,-2.24338 -1.83485,-4.0621 -4.09845,-4.06229 -0.69172,0.003 -1.37135,0.17998 -1.97559,0.51367 -0.65244,0.11013 -1.67639,0.0194 -1.67639,-1.69344 v -5.49424 c 0,-1.33713 -1.07667,-2.4138 -2.4138,-2.4138 h -5.49476 c -1.71192,0 -1.80328,-1.02286 -1.69344,-1.67535 0.33404,-0.6045 0.51093,-1.28453 0.51418,-1.97663 1e-4,-2.26377 -1.81873,-4.09903 -4.06228,-4.09897 z"
       style="fill:#000000;stroke:none;stroke-width:0.264583;stroke-linecap:round"
       id="path2" />
    <path
       d="m 162.27647,224.99521 a 4.0621786,4.0988019 0 0 1 0.51418,1.97662 4.0621786,4.0988019 0 0 1 -4.06228,4.09898 4.0621786,4.0988019 0 0 1 -4.06229,-4.09898 4.0621786,4.0988019 0 0 1 0.51367,-1.97559 c 0.11013,-0.65244 0.0194,-1.67638 -1.69344,-1.67638 h -5.49424 c -1.33716,0 -2.4138,1.07664 -2.4138,2.4138 v 5.49424 c 0,1.71289 1.02394,1.80357 1.67638,1.69344 a 4.0988019,4.0621786 0 0 1 1.97559,-0.51367 4.0988019,4.0621786 0 0 1 4.09898,4.06229 4.0988019,4.0621786 0 0 1 -4.09898,4.06228 4.0988019,4.0621786 0 0 1 -1.97662,-0.51418 c -0.65251,-0.10984 -1.67535,-0.0185 -1.67535,1.69344 v 5.49475 c 0,1.33716 1.07664,2.41381 2.4138,2.41381 h 5.49424 c 1.71334,0 1.80371,-1.02448 1.69344,-1.6769 a 4.0621786,4.0988019 0 0 1 -0.51367,-1.97507 4.0621786,4.0988019 0 0 1 4.06229,-4.09898 4.0621786,4.0988019 0 0 1 4.06228,4.09898 4.0621786,4.0988019 0 0 1 -0.51418,1.9761 c -0.10998,0.65248 -0.019,1.67587 1.69344,1.67587 h 5.49475 c 1.33716,0 2.41381,-1.07665 2.41381,-2.41381 v -5.49475 c 0,-1.69364 -1.00128,-1.8012 -1.65468,-1.69705 a 4.0988019,4.0621786 0 0 1 -1.9973,0.51779 4.0988019,4.0621786 0 0 1 -4.09897,-4.06228 4.0988019,4.0621786 0 0 1 4.09897,-4.06229 4.0988019,4.0621786 0 0 1 1.97559,0.51367 c 0.65245,0.11013 1.67639,0.0194 1.67639,-1.69344 v -5.49424 c 0,-1.33716 -1.07665,-2.4138 -2.41381,-2.4138 h -5.49475 c -1.71196,0 -1.80329,1.02284 -1.69344,1.67535 z"
       style="fill:#000000;stroke:none;stroke-width:0.264583;stroke-linecap:round"
       id="path38" />
    <path
       d="m 94.5238,215.56891 c -2.24355,-6e-5 -4.06238,1.8352 -4.06228,4.09897 0.003,0.69171 0.17997,1.37136 0.51366,1.97559 0.11013,0.65244 0.0194,1.67639 -1.69344,1.67639 H 83.7875 c -1.33713,0 -2.4138,1.07667 -2.4138,2.4138 v 5.49424 c 0,1.71285 1.02395,1.80357 1.67638,1.69344 0.60424,-0.33369 1.28389,-0.5104 1.97559,-0.51367 2.26377,-9e-5 4.09904,1.81875 4.09898,4.06229 6e-5,2.24354 -1.83521,4.06238 -4.09898,4.06228 -0.69209,-0.003 -1.37213,-0.18015 -1.97662,-0.51418 -0.65249,-0.10984 -1.67535,-0.0185 -1.67535,1.69344 v 5.49475 c 0,1.33714 1.07667,2.41381 2.4138,2.41381 h 5.49424 c 1.7133,0 1.80371,-1.0245 1.69344,-1.6769 -0.3336,-0.60408 -0.51031,-1.28355 -0.51366,-1.97507 -10e-5,-2.26377 1.81874,-4.09904 4.06228,-4.09898 2.24354,-6e-5 4.06238,1.83521 4.06228,4.09898 -0.003,0.69192 -0.18023,1.37177 -0.51418,1.9761 -0.10998,0.65247 -0.0189,1.67587 1.69344,1.67587 h 5.49476 c 1.33713,0 2.4138,-1.07667 2.4138,-2.41381 v -5.49475 c 0,-1.71194 1.02285,-1.80328 1.67535,-1.69344 0.6045,0.33404 1.28452,0.51093 1.97663,0.51418 2.26359,-1.8e-4 4.09851,-1.81891 4.09845,-4.06228 6e-5,-2.24337 -1.83486,-4.0621 -4.09845,-4.06229 -0.69171,0.003 -1.37135,0.17998 -1.97559,0.51367 -0.65244,0.11013 -1.67639,0.0194 -1.67639,-1.69344 v -5.49424 c 0,-1.33713 -1.07667,-2.4138 -2.4138,-2.4138 h -5.49476 c -1.71193,0 -1.80328,-1.02286 -1.69344,-1.67535 0.33404,-0.6045 0.51093,-1.28453 0.51418,-1.97663 1e-4,-2.26377 -1.81873,-4.09903 -4.06228,-4.09897 z"
       style="fill:#000000;stroke:none;stroke-width:0.264583;stroke-linecap:round"
       id="path34" />
    <path
       d="m 130.36894,215.56872 c -2.24356,-6e-5 -4.06238,1.83518 -4.06228,4.09897 0.003,0.69171 0.17997,1.37135 0.51366,1.97559 0.11013,0.65244 0.0194,1.67639 -1.69344,1.67639 h -5.49424 c -1.33713,0 -2.4138,1.07667 -2.4138,2.4138 v 5.49424 c 0,1.71285 1.02395,1.80357 1.67638,1.69344 0.60424,-0.33369 1.28389,-0.5104 1.97559,-0.51367 2.26377,-9e-5 4.09904,1.81874 4.09898,4.06229 6e-5,2.24354 -1.83521,4.06238 -4.09898,4.06228 -0.69209,-0.003 -1.37213,-0.18015 -1.97662,-0.51418 -0.65249,-0.10984 -1.67535,-0.0185 -1.67535,1.69344 v 5.49475 c 0,1.33714 1.07667,2.41381 2.4138,2.41381 h 5.49424 c 1.71287,0 1.80357,1.02394 1.69344,1.67638 -0.33369,0.60425 -0.5104,1.28388 -0.51366,1.97559 1.8e-4,2.26361 1.8189,4.09852 4.06228,4.09846 2.24338,6e-5 4.06209,-1.83485 4.06228,-4.09846 -0.001,-0.69869 -0.17914,-1.38551 -0.51728,-1.99522 -0.10473,-0.65334 0.001,-1.65675 1.69654,-1.65675 h 5.49475 c 1.33713,0 2.41381,-1.07667 2.41381,-2.41381 v -5.49475 c 0,-1.6959 -1.00396,-1.80141 -1.65726,-1.69654 -0.60956,0.33805 -1.29621,0.51612 -1.99472,0.51728 -2.26376,1e-4 -4.09903,-1.81874 -4.09897,-4.06228 -6e-5,-2.24355 1.83521,-4.06238 4.09897,-4.06229 0.69171,0.003 1.37136,0.17998 1.97559,0.51367 0.65244,0.11012 1.67639,0.0194 1.67639,-1.69344 v -5.49424 c 0,-1.33713 -1.07668,-2.4138 -2.41381,-2.4138 h -5.49475 c -1.71193,0 -1.80328,-1.02286 -1.69344,-1.67535 0.33403,-0.6045 0.51093,-1.28453 0.51418,-1.97663 1e-4,-2.26379 -1.81872,-4.09903 -4.06228,-4.09897 z"
       style="fill:#000000;stroke:none;stroke-width:0.264583;stroke-linecap:round"
       id="path30" />
    <path
       id="path13-8"
       style="fill:none;stroke:#030303;stroke-width:0.204368;stroke-linecap:round;stroke-dasharray:none;stroke-opacity:1"
       d="m 21.669,224.46643 a 4.0621786,4.0988019 0 0 1 -4.062176,4.0988 4.0621786,4.0988019 0 0 1 -4.062179,-4.0988 4.0621786,4.0988019 0 0 1 4.062179,-4.0988 4.0621786,4.0988019 0 0 1 4.062176,4.0988 z m -9.303981,3.652 c 2.502743,0 1.553196,-2.20677 1.553196,-2.20677 h 7.377205 m 0,0 c 0,0 -0.94953,2.20677 1.5532,2.20677 H 12.365019" />
    <path
       id="path13-8-9"
       style="fill:none;stroke:#030303;stroke-width:0.178781;stroke-linecap:round;stroke-dasharray:none;stroke-opacity:1"
       d="m 12.56897,115.86369 a 3.5535834,3.5856214 0 0 1 -3.5535805,3.58562 3.5535834,3.5856214 0 0 1 -3.55359,-3.58562 3.5535834,3.5856214 0 0 1 3.55359,-3.58562 3.5535834,3.5856214 0 0 1 3.5535805,3.58562 z m -8.1390905,3.19476 c 2.18939,0 1.35872,-1.93048 1.35872,-1.93048 H 12.24217 m 0,0 c 0,0 -0.83065,1.93048 1.35873,1.93048 H 4.4298795" />
    <path
       d="m 143.51903,90.10417 c -1.96273,-1.2e-4 -3.5539,1.6054 -3.55377,3.58583 0.003,0.60489 0.1577,1.19918 0.44957,1.72754 0.0965,0.57073 0.0172,1.46709 -1.48156,1.46709 h -3.96875 c -1.06543,0 -1.92339,0.857957 -1.92339,1.923397 v 3.969273 c 0,1.4988 0.89637,1.57751 1.46709,1.48104 0.52835,-0.29187 1.12265,-0.44654 1.72755,-0.44958 1.98042,-1.1e-4 3.58593,1.59106 3.58582,3.55379 1.1e-4,1.96273 -1.60541,3.5539 -3.58582,3.55378 -0.6049,-0.003 -1.19919,-0.1577 -1.72755,-0.44958 -0.57072,-0.0965 -1.46709,-0.0172 -1.46709,1.48156 v 3.96875 c 0,1.06544 0.85796,1.9234 1.92339,1.9234 h 17.10903 c 1.06544,0 1.9234,-0.85796 1.9234,-1.9234 v -3.96875 c 0,-1.48552 -0.88067,-1.5765 -1.45211,-1.48414 -0.53255,0.29521 -1.13233,0.45085 -1.74253,0.45216 -1.98042,1.2e-4 -3.58594,-1.59105 -3.58583,-3.55378 -1.1e-4,-1.96273 1.60541,-3.5539 3.58583,-3.55379 0.6102,10e-4 1.20998,0.15695 1.74253,0.45217 0.57144,0.0923 1.45211,0.002 1.45211,-1.48363 v -3.969273 c 0,-1.06544 -0.85796,-1.923397 -1.9234,-1.923397 h -3.96927 c -1.49879,0 -1.57749,-0.89636 -1.48104,-1.46709 0.29188,-0.52836 0.44654,-1.12265 0.44958,-1.72754 1.2e-4,-1.98043 -1.59105,-3.58595 -3.55379,-3.58583 z"
       style="fill:#000000;stroke:none;stroke-width:0.178781;stroke-linecap:round"
       id="path59" />
    <path
       d="m 142.17944,60.113127 c -1.96254,-1.15e-4 -3.55362,1.605083 -3.55379,3.58531 0.003,0.604889 0.1577,1.199184 0.44958,1.727544 0.0965,0.570713 0.0175,1.467094 -1.48156,1.467094 h -3.96875 c -1.06544,0 -1.9234,0.857961 -1.9234,1.923396 v 3.969267 c 0,1.498808 0.89637,1.577514 1.4671,1.481047 0.5284,-0.291698 1.1227,-0.446182 1.72754,-0.449069 1.98022,-1.12e-4 3.58565,1.590744 3.58583,3.553272 1.1e-4,1.96273 -1.60541,3.553901 -3.58583,3.553788 -0.60541,-0.0028 -1.20028,-0.157456 -1.72909,-0.449585 -0.57082,-0.09604 -1.46555,-0.01587 -1.46555,1.481564 v 3.969266 c 0,1.065436 0.85796,1.92288 1.9234,1.92288 h 17.10903 c 1.06544,0 1.9234,-0.857444 1.9234,-1.92288 v -17.10955 c 0,-1.065435 -0.85796,-1.923396 -1.9234,-1.923396 h -3.96926 c -1.49905,0 -1.57759,-0.896379 -1.48105,-1.467094 0.29188,-0.52836 0.44654,-1.122655 0.44958,-1.727544 -1.7e-4,-1.980227 -1.59125,-3.585425 -3.55378,-3.58531 z"
       style="fill:#000000;stroke:none;stroke-width:0.210819;stroke-linecap:round"
       id="path49" />
  </g>
</svg>
