<?xml version="1.0" encoding="UTF-8"?>
<!-- Created with Inkscape (http://www.inkscape.org/) -->
<svg width="99.402" height="128.7" version="1.1" viewBox="0 0 26.3 34.051" xmlns="http://www.w3.org/2000/svg">
 <g transform="translate(-90.13 -125.61)">
  <path d="m92.544 125.61c-1.3371 0-2.4138 1.0767-2.4138 2.4138v21.473c0 1.3372 1.0767 2.4138 2.4138 2.4138h5.4942c1.7129 0 1.8036 1.0239 1.6934 1.6764-0.33369 0.60424-0.5104 1.2839-0.51367 1.9756 1.89e-4 2.2636 1.8189 4.0985 4.0623 4.0985 2.2434 6e-5 4.0621-1.8349 4.0623-4.0985-2e-3 -0.69741-0.17939-1.3829-0.51676-1.9916-0.10574-0.65321-3e-3 -1.6604 1.696-1.6604h5.4948c1.3372 0 2.4138-1.0767 2.4138-2.4138v-21.473c0-1.3372-1.0767-2.4138-2.4138-2.4138h-5.4948c-1.6991 0-1.8019 1.0077-1.696 1.6609 0.33728 0.60854 0.51515 1.2939 0.51676 1.9911 1e-4 2.2638-1.8187 4.099-4.0623 4.099-2.2436 6e-5 -4.0624-1.8352-4.0623-4.099 0.0033-0.69171 0.17998-1.3714 0.51367-1.9756 0.11012-0.65244 0.0194-1.6764-1.6934-1.6764z"/>
 </g>
</svg>
