<?xml version="1.0" encoding="UTF-8"?>
<!-- Created with Inkscape (http://www.inkscape.org/) -->
<svg version="1.1" viewBox="0 0 34.051 26.3" xmlns="http://www.w3.org/2000/svg">
 <g transform="translate(-81.227 -102.66)">
  <path fill="#3178d4" d="m91.392 102.66c-1.3372 0-2.4138 1.0767-2.4138 2.4138v5.4942c0 1.6991-1.0077 1.8019-1.6609 1.696-0.60859-0.33711-1.2939-0.5148-1.9911-0.51625-2.2638-1e-4 -4.099 1.8187-4.099 4.0623-6e-5 2.2436 1.8352 4.0624 4.099 4.0623 0.69724-2e-3 1.3826-0.17948 1.9911-0.51677 0.65319-0.10587 1.6609-3e-3 1.6609 1.696v5.4948c0 1.3371 1.0767 2.4138 2.4138 2.4138h21.473c1.3371 0 2.4138-1.0767 2.4138-2.4138v-21.473c0-1.3372-1.0767-2.4138-2.4138-2.4138h-5.4948c-1.7119 0-1.8033 1.0228-1.6934 1.6754 0.33403 0.6045 0.51093 1.2845 0.51418 1.9766 9e-5 2.2638-1.8187 4.099-4.0623 4.099-2.2436 6e-5 -4.0624-1.8352-4.0623-4.099 3e-3 -0.6917 0.17998-1.3714 0.51366-1.9756 0.11013-0.65243 0.0194-1.6764-1.6934-1.6764z"/>
 </g>
</svg>
