<?xml version="1.0" encoding="UTF-8"?>
<!-- Created with Inkscape (http://www.inkscape.org/) -->
<svg width="34.315mm" height="34.315mm" version="1.1" viewBox="0 0 34.315 34.315" xmlns="http://www.w3.org/2000/svg">
 <g transform="translate(-91.017 -116.68)">
  <path d="m104.3 116.81c-2.2434-6e-5 -4.0621 1.8349-4.0623 4.0984 3e-3 0.69171 0.17998 1.3714 0.51367 1.9756 0.11013 0.65244 0.0194 1.6764-1.6934 1.6764h-5.4942c-1.3371 0-2.4138 1.0767-2.4138 2.4138v5.4948c0 1.7137 1.025 1.8038 1.6774 1.6934 0.60393-0.33352 1.2832-0.51023 1.9746-0.51367 2.2636-9e-5 4.0987 1.8184 4.099 4.0618 6e-5 2.2435-1.8352 4.0624-4.099 4.0623-0.6917-3e-3 -1.3714-0.17998-1.9756-0.51366-0.65243-0.11013-1.6764-0.0194-1.6764 1.6934v5.4948c0 1.3371 1.0767 2.4133 2.4138 2.4133h21.473c1.3371 0 2.4138-1.0762 2.4138-2.4133v-5.4948c0-1.7129 1.0239-1.8036 1.6764-1.6934 0.60424 0.33369 1.2839 0.5104 1.9756 0.51366 2.2636-1.8e-4 4.0985-1.8189 4.0985-4.0623-2.3e-4 -2.2432-1.8351-4.0616-4.0985-4.0618-0.69136 3e-3 -1.3706 0.18014-1.9746 0.51367-0.65238 0.11039-1.6774 0.0203-1.6774-1.6934v-5.4948c0-1.3371-1.0767-2.4138-2.4138-2.4138h-5.4948c-1.7137 0-1.8038-1.025-1.6934-1.6774 0.3337-0.60388 0.51058-1.2832 0.51418-1.9746-1.9e-4 -2.2636-1.8189-4.0985-4.0623-4.0984z" stroke="#030303" stroke-linecap="round" stroke-width=".26458"/>
 </g>
</svg>
