<?xml version="1.0" encoding="UTF-8"?>
<!-- Created with Inkscape (http://www.inkscape.org/) -->
<svg version="1.1" viewBox="0 0 34.051 41.802" xmlns="http://www.w3.org/2000/svg">
 <g transform="translate(-88.635 -99.483)">
  <path fill="#31d4c7" d="m101.79 99.483c-2.2435-6e-5 -4.0624 1.8352-4.0623 4.099 0.0174 0.64654 0.18612 1.2798 0.49248 1.848 0.13979 0.6353 0.15352 1.804-1.6722 1.804h-5.4942c-1.3371 0-2.4138 1.0767-2.4138 2.4138v5.4942c0 1.8258 1.1687 1.812 1.804 1.6722 0.56813-0.30636 1.2014-0.47512 1.8479-0.49248 2.2637-1e-4 4.099 1.8188 4.099 4.0623 5.9e-5 2.2435-1.8352 4.0624-4.099 4.0623-0.64676-0.0174-1.2802-0.18638-1.8485-0.493-0.63541-0.13969-1.8035-0.15304-1.8035 1.6722v5.4948c0 1.3371 1.0767 2.4138 2.4138 2.4138h5.4942c1.8258 0 1.812 1.1687 1.6722 1.804-0.30636 0.56814-0.47512 1.2014-0.49248 1.848 1.9e-4 2.2636 1.8189 4.0985 4.0623 4.0984 2.2434 6e-5 4.0621-1.8349 4.0623-4.0984-9.9e-4 -0.69886-0.17906-1.3859-0.51728-1.9958-0.10459-0.65334 1e-3 -1.6562 1.6965-1.6562h5.4948c1.3371 0 2.4138-1.0767 2.4138-2.4138v-5.4948c0-1.8253 1.1681-1.8119 1.8035-1.6722 0.56825 0.30662 1.2017 0.47556 1.8485 0.493 2.2636-1.9e-4 4.0985-1.8189 4.0985-4.0623 6e-5 -2.2434-1.8349-4.0621-4.0985-4.0623-0.64655 0.0174-1.2798 0.18612-1.848 0.49248-0.63531 0.1398-1.804 0.15353-1.804-1.6722v-5.4942c0-1.3371-1.0767-2.4138-2.4138-2.4138h-5.4948c-1.8253 0-1.8119-1.1681-1.6722-1.8035 0.30662-0.56824 0.47556-1.2017 0.493-1.8485 9e-5 -2.2638-1.8188-4.099-4.0623-4.099z"/>
 </g>
</svg>
