<?xml version="1.0" encoding="UTF-8"?>
<!-- Created with Inkscape (http://www.inkscape.org/) -->
<svg version="1.1" viewBox="0 0 34.051 34.051" xmlns="http://www.w3.org/2000/svg">
 <g transform="translate(-77.788 -126.74)">
  <path fill="#31d4c7" d="m90.938 126.74c-2.2436-6e-5 -4.0624 1.8352-4.0623 4.099 3e-3 0.69171 0.17997 1.3714 0.51366 1.9756 0.11013 0.65244 0.0194 1.6764-1.6934 1.6764h-5.4942c-1.3371 0-2.4138 1.0767-2.4138 2.4138v21.473c0 1.3371 1.0767 2.4138 2.4138 2.4138h21.473c1.3371 0 2.4138-1.0767 2.4138-2.4138v-5.4948c0-1.7137 1.025-1.8038 1.6774-1.6934 0.60389 0.33371 1.2832 0.51059 1.9746 0.51418 2.2636-1.8e-4 4.0985-1.8189 4.0984-4.0623 6e-5 -2.2434-1.8348-4.0621-4.0984-4.0623-0.69172 3e-3 -1.3714 0.17998-1.9756 0.51367-0.65244 0.11013-1.6764 0.0194-1.6764-1.6934v-5.4942c0-1.3371-1.0767-2.4138-2.4138-2.4138h-5.4948c-1.7119 0-1.8033-1.0229-1.6934-1.6754 0.33404-0.6045 0.51093-1.2845 0.51418-1.9766 1e-4 -2.2638-1.8187-4.099-4.0623-4.099z"/>
 </g>
</svg>
