<?xml version="1.0" encoding="UTF-8"?>
<!-- Created with Inkscape (http://www.inkscape.org/) -->
<svg version="1.1" viewBox="0 0 26.3 34.051" xmlns="http://www.w3.org/2000/svg">
 <g transform="translate(-90.395 -119.79)">
  <path fill="#1df407" d="m103.54 119.79c-2.2436-6e-5 -4.0624 1.8352-4.0623 4.099 3e-3 0.69171 0.17997 1.3714 0.51366 1.9756 0.11013 0.65244 0.0194 1.6764-1.6934 1.6764h-5.4942c-1.3371 0-2.4138 1.0767-2.4138 2.4138v21.473c0 1.3371 1.0767 2.4138 2.4138 2.4138h21.473c1.3371 0 2.4138-1.0767 2.4138-2.4138v-21.473c0-1.3371-1.0767-2.4138-2.4138-2.4138h-5.4948c-1.7119 0-1.8033-1.0228-1.6934-1.6754 0.33404-0.6045 0.51093-1.2845 0.51418-1.9766 1e-4 -2.2638-1.8187-4.099-4.0623-4.099z"/>
 </g>
</svg>
