<?xml version="1.0" encoding="UTF-8"?>
<!-- Created with Inkscape (http://www.inkscape.org/) -->
<svg version="1.1" viewBox="0 0 26.3 34.051" xmlns="http://www.w3.org/2000/svg">
 <g transform="translate(-95.157 -134.35)">
  <path fill="#1df407" d="m108.31 134.35c-2.2436-6e-5 -4.0624 1.8352-4.0623 4.099 3e-3 0.69171 0.17998 1.3714 0.51367 1.9756 0.11013 0.65244 0.0194 1.6764-1.6934 1.6764h-5.4942c-1.3371 0-2.4138 1.0767-2.4138 2.4138v5.4942c0 1.7129 1.0239 1.8036 1.6764 1.6934 0.60424-0.33368 1.2839-0.51039 1.9756-0.51366 2.2638-9e-5 4.099 1.8187 4.099 4.0623 6e-5 2.2436-1.8352 4.0624-4.099 4.0623-0.6921-3e-3 -1.3721-0.18015-1.9766-0.51418-0.6525-0.10985-1.6754-0.0185-1.6754 1.6934v5.4948c0 1.3372 1.0767 2.4138 2.4138 2.4138h21.473c1.3372 0 2.4138-1.0767 2.4138-2.4138v-21.473c0-1.3372-1.0767-2.4138-2.4138-2.4138h-5.4948c-1.7119 0-1.8033-1.0228-1.6934-1.6754 0.33404-0.6045 0.51093-1.2845 0.51418-1.9766 1e-4 -2.2638-1.8187-4.099-4.0623-4.099z"/>
 </g>
</svg>
