<?xml version="1.0" encoding="UTF-8"?>
<!-- Created with Inkscape (http://www.inkscape.org/) -->
<svg version="1.1" viewBox="0 0 26.3 26.3" xmlns="http://www.w3.org/2000/svg">
 <g transform="translate(-93.262 -130.3)">
  <path fill="#31d4c7" d="m109.96 131.98a4.0622 4.0988 0 0 1 0.51418 1.9766 4.0622 4.0988 0 0 1-4.0623 4.099 4.0622 4.0988 0 0 1-4.0623-4.099 4.0622 4.0988 0 0 1 0.51367-1.9756c0.11013-0.65244 0.0194-1.6764-1.6934-1.6764h-5.4942c-1.3372 0-2.4138 1.0766-2.4138 2.4138v5.4942c0 1.7129 1.0239 1.8036 1.6764 1.6934a4.0988 4.0622 0 0 1 1.9756-0.51367 4.0988 4.0622 0 0 1 4.099 4.0623 4.0988 4.0622 0 0 1-4.099 4.0623 4.0988 4.0622 0 0 1-1.9766-0.51418c-0.65251-0.10984-1.6754-0.0185-1.6754 1.6934v5.4948c0 1.3372 1.0766 2.4138 2.4138 2.4138h5.4942c1.7133 0 1.8037-1.0245 1.6934-1.6769a4.0622 4.0988 0 0 1-0.51367-1.9751 4.0622 4.0988 0 0 1 4.0623-4.099 4.0622 4.0988 0 0 1 4.0623 4.099 4.0622 4.0988 0 0 1-0.51418 1.9761c-0.10998 0.65248-0.019 1.6759 1.6934 1.6759h5.4948c1.3372 0 2.4138-1.0766 2.4138-2.4138v-5.4948c0-1.6936-1.0013-1.8012-1.6547-1.697a4.0988 4.0622 0 0 1-1.9973 0.51779 4.0988 4.0622 0 0 1-4.099-4.0623 4.0988 4.0622 0 0 1 4.099-4.0623 4.0988 4.0622 0 0 1 1.9756 0.51367c0.65245 0.11013 1.6764 0.0194 1.6764-1.6934v-5.4942c0-1.3372-1.0766-2.4138-2.4138-2.4138h-5.4948c-1.712 0-1.8033 1.0228-1.6934 1.6754z" stroke-linecap="round" stroke-width=".26458"/>
 </g>
</svg>
